<svg id="Layer_1" data-name="Layer 1" xmlns="http://www.w3.org/2000/svg" viewBox="0 0 512 512"><defs><style>.cls-1{fill:#fff;}.cls-2{fill:#94a6c3;}.cls-3{fill:#1b314f;}.cls-4{fill:#ffd923;}.cls-5{fill:#d82122;}</style></defs><circle class="cls-1" cx="256" cy="256" r="256"/><path class="cls-1" d="M146,276.15l11.11-83.49L60.74,125.75l88.06,29.83,20.79-31.91,75.94-47.12,167.39,92.22,8.67,140.71L347,413.11l-58.94,9,30.48-55.79V312.63l-22.17-41.95-22.52-14.91-34.64,35.71v37.79l-27,25.31-34.35,4.16-15.21,8.62-25-8L127.29,322,146,295.64Z"/><path class="cls-2" d="M299.9,125c-18.36-3.8-38.44-2.79-38.44-2.79s-6.6,30.48-47.48,38.5C214.28,160.75,268,179.11,299.9,125Z"/><path class="cls-2" d="M316.54,401.64c22.16-17.35,38.8-41.24,46.46-68.27.36-1,3.45-2.79,5.53-4.16,3.45-2.08,7-3.8,7.61-6.6a146.89,146.89,0,0,0,2.08-24.6c0-3.09-3.15-6.24-6.24-9.33-2.44-2.08-4.88-4.51-4.88-6.24A131.71,131.71,0,0,0,325.87,200l-2.44,2.44a129.33,129.33,0,0,1,40.23,80.39c.35,2.79,3.09,5.53,5.88,8.32,2.44,2.08,5.23,5.23,5.23,6.6a140.58,140.58,0,0,1-2.08,23.88c-.36,1.37-3.45,2.8-5.88,4.16-3.45,1.73-6.6,3.45-7.25,6.24a128.13,128.13,0,0,1-52.71,71.78c4.52-9.68,18.72-41.24,26.33-57.22l-1.37-51.28-44-42.6-25,3.44-27.39,44.39s12.83,16.28-5.23,35.35c-17.65,18.72-31.55,22.88-31.55,22.88l-12.84-6.95c3.81-4.87,11.47-12.12,17.35-17,10.05-8.31,20.09-9,20.09-18,.41-18.78-19.73-13.61-19.73-13.61l-7.31,6.95-3.09,25.67-15.21,19.08-1.72-.36-25-5.52s15.27-8,17.71-17c2.44-8.67-4.87-37.43-5.23-39.16a37.79,37.79,0,0,1,10.4,15.93c5.52-15.27,12.83-29.83,14.91-31.2s30.13-16.28,30.13-16.28l-9.33,24.6,7-3.8,16.64-40.88s16.28-8,28.4-8c21.81-.36,54.07-27,39.52-74.87,4.16,1.72,76.23,37.79,88.71,108.5C399.37,321.25,368.53,372.17,316.54,401.64Z"/><path class="cls-3" d="M234.06,132.65c8-9.39,4.88-23.24,4.88-23.24L215.7,143.76C215.35,143.76,224,144.12,234.06,132.65Z"/><path class="cls-3" d="M156,320.18l2.8-13.85s-11.47,20.09-12.48,22.88c-1.07,3.15.71,8.67,5.17,8.32s10-6.95,10-11.77C161.57,319.52,156,320.18,156,320.18Z"/><path class="cls-3" d="M361.94,99.73s17.35.71,35.35,2.79c-40.58-31.91-79-41.24-110.22-41.24C244.11,61.28,215,79,213.21,80l13.54-21.51s-54.07-5.23-73.14,52c-4.87-12.12-9.33-29.83-9.33-29.83s-28.11,24.66-14.91,65.54c-32.27-11.76-78.32-28.1-80.1-28.4-2.44-.35-3.15.72-3.15.72s-.72,1,1.36,2.79c3.87,3,76.66,56.8,92.64,67.2-3.45,12.48-3.45,18.36,0,24.25,4.87,8,5.17,12.12,4.52,18s-7,56.86-8.32,63.1-15.93,28.41-15.27,35,9.68,34.64,17.7,37.79c5.89,2.08,20.44,6.6,30.13,6.6,3.45,0,6.6-.71,8-2.08,5.88-5.17,7.61-6.24,11.77-6.24h1c1.72,0,3.8.36,6.24.36,5.52,0,12.83-1.07,18-5.89,7.61-7.6,20.8-18,25-22.87a32.17,32.17,0,0,0,6.59-24.6c-1.07-8.32,3.45-15.63,8.68-22.88,6.59-8.67,18.72-24.24,18.72-24.24,23.94,17.94,38.86,45.33,38.86,75.82,0,54.07-47.12,97.74-105.36,97.74A111.52,111.52,0,0,1,180,435.27c26.68,9.33,49.2,12.48,67.62,12.48,39.16,0,60-14.2,60-14.2a172.19,172.19,0,0,1-19.08,20.08h.36c64.83-9,96.38-62.39,96.38-62.39s-2.44,17.35-5.53,29.12c86.22-64.83,71.66-145.94,71.31-148.67.71,1,9.38,11.41,13.84,17C478.75,145.84,361.94,99.73,361.94,99.73ZM229.19,327.84c-1.37,1.72-7.25,7-11.41,10.76s-8.67,7.6-12.12,11.11c-1.37,1.36-4.16,2.08-8.32,2.08h-10.4c5.23-7,20.44-22.88,25.67-26.33,6.24-4.15,9.39-8.31,5.53-15.56s-13.85-5.53-13.85-5.53,5.89-2.44,11.12-2.44c-6.6-1.72-14.92,0-18.72,3.81-4.16,3.8-3.45,17.35-5.17,26-1.72,9-7.61,13.55-16.64,21.87-4.87,4.52-8.32,5.88-11.11,5.88a118.82,118.82,0,0,1-17.71-4.51c-3.44-4.52-8.67-19.43-10-25.67,1-3.45,5.17-10.76,7.25-14.92,4.16-8,6.6-12.47,7.31-16.63,1.36-5.89,5.88-42.31,7.6-57.52,4.52,5.88,10.76,15.62,9.33,21.86,10-14.2,2.8-28.1-.71-33.63-3.09-5.52-7.25-16.64-3.8-28.4s15.92-44.39,15.92-44.39,4.16,7.31,10,5.89,53.36-72.79,53.36-72.79,12.84,28-.71,48.54c-13.85,20.44-27.39,24.25-27.39,24.25a51.93,51.93,0,0,0,36.72-9.39c7.25,17,14.2,34.64,14.56,37.07-1.07,2.44-14.92,35.72-16.28,37.8-.72.71-5.53,2.08-9,2.79-5.88,1.72-9.33,2.79-10.75,3.8-2.44,2.08-13.55,32.56-18.72,47.48a28.74,28.74,0,0,0-17,12.12c2.43-1.72,10-2.79,15.62-3.45,4.88-.35,19.73,7.61,23.59,22.52V313A21.38,21.38,0,0,1,229.19,327.84ZM196.63,332c3.15-4.51,2.79-12.12,3.15-14.56s1-6.95,3.8-7.6,9.39.35,9.39,5.17c0,4.51-4.87,5.52-8.32,8.67C202.15,326.06,197.28,331.29,196.63,332ZM334.9,265.75a166.25,166.25,0,0,0,2.79-45.4,127.39,127.39,0,0,1,24.25,62.39c.35,2.79,3.08,5.53,5.88,8.32,2.43,2.08,5.23,4.87,5.23,6.6A142.86,142.86,0,0,1,371,321.6c-.36,1-3.45,2.8-5.89,4.16-3.44,1.73-6.59,3.45-7.24,6.24a129.22,129.22,0,0,1-45.76,66.91C344.29,365.28,359.86,309.78,334.9,265.75ZM313.09,402c22.52-17.35,39.87-41.6,47.48-69,.35-1,3.44-2.79,5.52-4.16,3.45-1.72,7-3.8,7.61-6.59a145.93,145.93,0,0,0,2.08-24.6c0-3.09-3.15-6.24-6.24-9.33-1.72-2.08-4.52-4.52-4.52-6.24a135.91,135.91,0,0,0-28.4-69c-6.95-41.59-34.64-54.43-35.35-54.78.71,1.07,18.71,27,6.24,57.52-12.84,30.83-45.76,26-48.55,26.32-2.79,0-13.49,13.84-27,39.51-1.72-.71-9-2.43-17.35-1,6.24-17.35,15.63-42,17.35-44,.72-.71,5.89-2.08,9.39-3.09,6.6-1.72,9.69-2.79,10.76-4.16.71-1.07,4.16-9,7.6-17.35,3.15,0,11.11-.71,11.77-1.07.71-.71,7.31-17.65,7.31-19.72,0-1.73-13.55-35.36-18.72-48.19A80,80,0,0,0,267.28,133c71.07,7.67,126.56,68,126.56,141.07A142,142,0,0,1,313.09,402Z"/><path class="cls-3" d="M220.87,214.82c6.6-7.6,3.15-21.8-9-24.24,3.15-7.25,7.61-21.81,7.61-21.81S184.09,224.21,181,225.28s-6.24-11.11-6.24-11.11c-6.59,25.31,11.11,28.76,13.19,20.8C197.64,232.47,214.28,222.07,220.87,214.82Z"/><path class="cls-4" d="M190.69,228.31l18-30.84s10.4,5.23,5.17,13.55C207.32,220.71,190.69,228.31,190.69,228.31Z"/><path class="cls-5" d="M413.57,371.16a203.45,203.45,0,0,1-18,21.15c44.68-86,2.08-164.65.35-167.74,3.15,3.15,6.24,6.6,9,9.69C439.24,272.34,443.4,329.56,413.57,371.16Z"/><path class="cls-5" d="M455.17,260.58c-15.63-41.95-37.8-77.66-86.64-109.87C321.41,119.52,270.78,122,268,122.31h-.71a24.13,24.13,0,0,1,5.17-1.37c10.75-3.44,24.6-6.24,38.5-8,36.78-5.29,73.86,7.19,99.17,33.93l.72.71C439.6,178.1,454.51,216.19,455.17,260.58Z"/><path class="cls-5" d="M357.42,89c-51.64-9.68-84.91-4.87-108.86,4.16-.71-2.79-3.15-8.32-5.23-12.83C236.14,89,228.48,99.37,223.66,106c-13.19,9-18.71,17.7-18.71,17.7,7.6-26,29.83-45.39,56.86-50.26a141.05,141.05,0,0,1,25-2.08A163.06,163.06,0,0,1,357.42,89Z"/><path class="cls-5" d="M166.44,155.52c-40.52-1.36-27-48.54-26.32-51.28C140.12,104.6,142.85,141.32,166.44,155.52Z"/><path class="cls-5" d="M206.31,70.61C175.12,89.33,181.36,134,181.36,134,151.53,88.68,203.88,71.68,206.31,70.61Z"/><path class="cls-1" d="M155,168c2.08,1.73,4.16,4.87,1.73,9.39-1.37,2.44-3.45,2.08-6.6.71C146,176,121.05,161.47,98.53,146.55c25.67,9,51.63,18.72,55.79,20.8C154.32,167.35,154.68,167.7,155,168Z"/></svg>