<svg id="Layer_1" data-name="Layer 1" xmlns="http://www.w3.org/2000/svg" xmlns:xlink="http://www.w3.org/1999/xlink" viewBox="0 0 512 512"><defs><style>.cls-1{fill:#fff;}.cls-2{fill:url(#linear-gradient);}</style><linearGradient id="linear-gradient" x1="43.71" y1="547.99" x2="468.29" y2="547.99" gradientTransform="translate(0 -291.99)" gradientUnits="userSpaceOnUse"><stop offset="0" stop-color="#e168fd"/><stop offset="1" stop-color="#7b00fc"/></linearGradient></defs><circle class="cls-1" cx="256" cy="256" r="256"/><path class="cls-2" d="M256,491a66.76,66.76,0,0,1-32.9-8.87L76.9,397.73a66.44,66.44,0,0,1-33.19-57.51V171.42a66.31,66.31,0,0,1,32.9-57.22L223.1,29.8a66.46,66.46,0,0,1,66.09,0l146.2,84.4a66.31,66.31,0,0,1,32.9,57.22V340.51a66.31,66.31,0,0,1-32.9,57.22l-146.2,84.4A67.84,67.84,0,0,1,256,491Zm0-447.18a43.8,43.8,0,0,0-21.46,5.72L88.06,134.23A42.87,42.87,0,0,0,66.6,171.42V340.51A43.13,43.13,0,0,0,88.06,377.7l146.2,84.69a43.19,43.19,0,0,0,43.2,0L423.66,378a43.16,43.16,0,0,0,21.46-37.2V171.42a42.79,42.79,0,0,0-21.46-37.19L277.74,49.54A44.06,44.06,0,0,0,256,43.82Zm0,370.5a35.18,35.18,0,0,1-17.74-4.86L131.83,348.23a35.68,35.68,0,0,1-17.74-30.9V194.59a35.77,35.77,0,0,1,17.74-30.89l106.43-61.23a35.66,35.66,0,0,1,35.48,0L379.88,163.7a35.66,35.66,0,0,1,17.74,30.89V317.33a36,36,0,0,1-17.74,30.9L273.45,409.46A33.37,33.37,0,0,1,256,414.32Zm0-299.55a17.75,17.75,0,0,0-9.16,2.58L140.41,178.57a18.61,18.61,0,0,0-9.15,16V317.33a18.63,18.63,0,0,0,9.15,16l106.43,61.22a17.55,17.55,0,0,0,18.32,0L371.3,333.36a18.64,18.64,0,0,0,9.16-16V194.59a18.62,18.62,0,0,0-9.16-16L265.16,117.35a16.35,16.35,0,0,0-9.16-2.58Zm0,221.73a20.69,20.69,0,0,1-9.16-2.29l-53.78-31.47A18.12,18.12,0,0,1,183.9,287V224.64a17.81,17.81,0,0,1,9.16-15.74l53.78-31.19a19,19,0,0,1,18.32,0l53.78,31.19a17.81,17.81,0,0,1,9.16,15.74V287a17.78,17.78,0,0,1-9.16,15.73l-53.78,31.19A17.84,17.84,0,0,1,256,336.5Zm0-149.63a7.64,7.64,0,0,0-3.43.86l-53.79,31.18a6.89,6.89,0,0,0-3.43,5.73V287a7.76,7.76,0,0,0,3.43,6l53.79,31.19a7.3,7.3,0,0,0,6.86,0L313.22,293a7.33,7.33,0,0,0,3.43-6V224.64a6.89,6.89,0,0,0-3.43-5.73l-53.79-31.18a7.64,7.64,0,0,0-3.43-.86Z"/></svg>