<svg id="Layer_1" data-name="Layer 1" xmlns="http://www.w3.org/2000/svg" xmlns:xlink="http://www.w3.org/1999/xlink" viewBox="0 0 512 512"><defs><style>.cls-1{fill:#fff;}.cls-2{fill-opacity:0.05;fill:url(#linear-gradient);}.cls-3{fill:url(#linear-gradient-2);}.cls-4,.cls-5{fill-rule:evenodd;}.cls-4{fill:url(#linear-gradient-3);}.cls-5{fill:url(#linear-gradient-4);}</style><linearGradient id="linear-gradient" x1="256" y1="625.12" x2="256" y2="964.72" gradientTransform="translate(0 -446)" gradientUnits="userSpaceOnUse"><stop offset="0" stop-color="#01e8f8"/><stop offset="1" stop-color="#01e8f8" stop-opacity="0"/></linearGradient><linearGradient id="linear-gradient-2" x1="415.12" y1="639.37" x2="426.48" y2="775.13" gradientTransform="translate(0 -446)" gradientUnits="userSpaceOnUse"><stop offset="0" stop-color="#01e8f7"/><stop offset="1" stop-color="#00c2ff"/></linearGradient><linearGradient id="linear-gradient-3" x1="191.55" y1="566.43" x2="323.39" y2="775.71" gradientTransform="translate(0 -446)" gradientUnits="userSpaceOnUse"><stop offset="0" stop-color="#01e8f7"/><stop offset="1" stop-color="#00b3ec"/></linearGradient><linearGradient id="linear-gradient-4" x1="245.07" y1="663.92" x2="256.83" y2="1001.68" xlink:href="#linear-gradient-2"/></defs><circle class="cls-1" cx="256" cy="256" r="256"/><g id="Layer_2" data-name="Layer 2"><g id="Layer_1-2" data-name="Layer 1-2"><circle class="cls-2" cx="256" cy="256" r="256"/><path class="cls-3" d="M456,239c1.76-36.88-24-61.36-53.12-78.16L384,272a27.35,27.35,0,0,1,21.84,6.56,19,19,0,0,1,1.44,25.6C425.52,301.12,453.92,283.6,456,239Z"/><path class="cls-4" d="M208,109.84,185.6,87.2C219.52,83,309,88.32,395.68,142.64a45.51,45.51,0,0,1,0,14.64L403,161a84.63,84.63,0,0,1,9.44,65C404.88,256,392,269.28,386.24,272c-11.6,0-31.36,6.72-37.76,36.48s-18.72,36.24-24,35.76l-128,1.52L112,296,99.84,193l24-32,42.88-35,30.56-12.48ZM359.28,152a48.29,48.29,0,0,1-12.48,9.52c-32.88-7-44.8-24-44.8-24a153.8,153.8,0,0,1,80,19.68A147.18,147.18,0,0,0,359.28,152Z"/><path class="cls-5" d="M347.36,308.48A177.44,177.44,0,0,1,269.28,326c-80.72,0-146.08-50.72-146.08-113.2,0-46.24,35.68-85.92,86.8-103.52C112.72,114.88,34.48,193,34.48,289.52c0,111.36,99.28,203.36,221.52,203.36A239.06,239.06,0,0,0,463.52,369C408.72,381.28,344,357.84,347.36,308.48Z"/></g></g></svg>