<svg id="Layer_1" data-name="Layer 1" xmlns="http://www.w3.org/2000/svg" viewBox="0 0 512 512"><defs><style>.cls-1{fill:#fff;}.cls-2{fill:#1c1e21;}</style></defs><circle class="cls-1" cx="256" cy="256" r="256"/><path class="cls-2" d="M395.93,171.22h-45.1A18.32,18.32,0,0,1,337.09,165L318.8,144.33a14.41,14.41,0,0,0-20.35-1.15,12.48,12.48,0,0,0-1.15,1.15L281.63,162a27.06,27.06,0,0,1-20.24,9.19H14.58a255.73,255.73,0,0,0-13.4,63.13h233A14.88,14.88,0,0,0,245,229.71L266.71,207a14.35,14.35,0,0,1,10.36-4.38h.85a14.69,14.69,0,0,1,10.79,4.8L307,228.11a18.18,18.18,0,0,0,13.74,6.24H510.82a252,252,0,0,0-13.4-63.13H395.93Z"/><path class="cls-2" d="M142.12,367.11a15.06,15.06,0,0,0,10.79-4.63l21.66-22.68a14.67,14.67,0,0,1,10.37-4.38h.93a14.69,14.69,0,0,1,10.79,4.8l18.2,20.66a18.46,18.46,0,0,0,13.74,6.23H486.29a252.69,252.69,0,0,0,21.07-63.64H260a18.35,18.35,0,0,1-13.65-6.15L228,276.67a14.4,14.4,0,0,0-10.78-4.89,14.06,14.06,0,0,0-10.71,4.89l-15.68,17.7a27.13,27.13,0,0,1-20.31,9.1H4.64a252.25,252.25,0,0,0,21,63.81Z"/><path class="cls-2" d="M325,102.18a15.1,15.1,0,0,0,10.88-4.64L357.49,75a14.37,14.37,0,0,1,10.37-4.47h.92a14.09,14.09,0,0,1,10.71,4.89L397.78,96a18.65,18.65,0,0,0,13.74,6.15h49C375.67-10.76,215.36-33.56,102.42,51.27A255.6,255.6,0,0,0,51.5,102.18Z"/><path class="cls-2" d="M226.5,430.33h-67a18.09,18.09,0,0,1-13.65-6.23l-18.21-20.66a14.49,14.49,0,0,0-20.47-1.1c-.39.35-.76.72-1.11,1.1l-15.76,18a26.86,26.86,0,0,1-20.23,9.19H69c96.28,103.28,258.06,109,361.34,12.67q6.56-6.1,12.67-12.67Z"/></svg>