<svg id="Layer_1" data-name="Layer 1" xmlns="http://www.w3.org/2000/svg" viewBox="0 0 512 512"><defs><style>.cls-1{fill:#fbb040;}</style></defs><circle class="cls-1" cx="256" cy="256" r="256"/><path d="M55.19,178.19h14.3l18.4,58.36h-10l-4-12.65h-23l-4,12.65H36.79Zm15.72,36.59-8.67-27.15-8.55,27.15Z"/><path d="M93.56,214.86V178.27l9.89-.08v36.43c0,8.8,6.53,13.94,13.62,13.94,7.26,0,13.62-5.27,13.62-13.94V178.19h9.89v36.67c0,13.86-9.61,22.9-23.51,22.9S93.56,228.77,93.56,214.86Z"/><path d="M166,187.35H147.06v-9.16H194.6v9.16H175.71v49.2H166Z"/><path d="M197.84,207.37c0-18.12,10.46-30.4,27.93-30.4s28,12.28,28,30.4-10.46,30.39-28,30.39S197.84,225.48,197.84,207.37Zm27.93,21.19c11.75.12,17.63-8.43,17.63-21.19s-5.88-21-17.63-21.2-17.55,8.43-17.59,21.2S214,228.4,225.77,228.56Z"/><path d="M261.84,178.19h8.79l20.18,41.33L311,178.19h8.79v58.36h-9.12V199.14l-17.91,37.41h-3.89L271,199.14v37.41h-9.16Z"/><path d="M345.49,178.19h14.3l18.4,58.36H368.14l-4-12.65h-23l-4,12.65H327.09Zm15.72,36.59-8.67-27.15L344,214.78Z"/><path d="M394.65,187.35H375.76v-9.16H423.3v9.16H404.41v49.2h-9.76Z"/><path d="M442.51,178.19h14.3l18.4,58.36h-10l-4-12.65h-23l-4,12.65H424.11Zm15.72,36.59-8.67-27.15L441,214.78Z"/><path d="M63,275.45h9.89L100,316.59V275.45h9.89v58.36H100L72.92,292.68v41.13H63Z"/><path d="M121.23,275.45h37.69v9.16H131V299h23.06v9.16H131v16.49h27.93v9.16H121.23Z"/><path d="M182.67,284.61H163.78v-9.16h47.54v9.16H192.43v49.2h-9.76Z"/><path d="M213.06,275.45h10.25L235,317.6l11.59-42.07,10.25-.08,11.63,42.15L280,275.45h10.26l-17,58.36H263.6l-11.92-41.5-11.91,41.5h-9.65Z"/><path d="M292,304.63c0-18.11,10.45-30.39,27.92-30.39s28,12.28,28,30.39-10.46,30.4-28,30.4S292,322.75,292,304.63Zm27.92,21.2c11.76.12,17.63-8.43,17.63-21.2s-5.87-21-17.63-21.19-17.55,8.43-17.59,21.19S308.18,325.67,319.93,325.83Z"/><path d="M356,275.45h24.12a32.5,32.5,0,0,1,4.66.33c10.13,1.58,14.87,9,14.87,18.68,0,7.86-3.2,14.27-9.85,17.22l10.78,22.13H389.52l-9.89-20.38H365.77v20.38H356Zm23.71,28.86a14.31,14.31,0,0,0,3.69-.41c4.86-1.21,6.4-5.71,6.4-9.44s-1.54-8.23-6.4-9.48a16.22,16.22,0,0,0-3.69-.37H365.77v19.7Z"/><path d="M409.5,275.45h9.77v27.08l23.3-27.08h12l-25.09,28.62,26.79,29.74h-12.4l-24.6-27.23v27.23H409.5Z"/></svg>