<svg id="Layer_1" data-name="Layer 1" xmlns="http://www.w3.org/2000/svg" xmlns:xlink="http://www.w3.org/1999/xlink" viewBox="0 0 512 512"><defs><style>.cls-1{fill:#fff2e1;}.cls-2{fill:#fff;}.cls-3{fill:#ffae54;fill-rule:evenodd;}.cls-4,.cls-5{stroke:#ac562a;stroke-width:1.07px;}.cls-4{fill:url(#radial-gradient);}.cls-5,.cls-6{fill:#ac562a;}</style><radialGradient id="radial-gradient" cx="-142.29" cy="-332.69" r="13.72" gradientTransform="matrix(0, 14.38, -14.24, 0, -4480.63, 2302.24)" gradientUnits="userSpaceOnUse"><stop offset="0.33" stop-color="#f7b450"/><stop offset="0.65" stop-color="#ffc977"/><stop offset="1" stop-color="#f90"/></radialGradient></defs><circle class="cls-1" cx="256" cy="256" r="256"/><path class="cls-2" d="M356.5,249.74c2.74-1.37,6.85,1.37,6.85,4.11l5.49,20.57c1.37,2.74-1.37,6.85-4.12,6.85-2.74,1.38-6.85-1.37-6.85-4.11l-5.49-20.57C351,253.85,352.38,249.74,356.5,249.74ZM198.81,96.17c-1.37-2.75-1.37-6.86,1.37-8.23L218,75.6c2.74-1.37,6.85-1.37,8.22,1.37,1.38,4.11,1.38,6.86-1.37,9.6L207,98.91C204.3,98.91,200.18,98.91,198.81,96.17Z"/><path class="cls-3" d="M290.68,168.84c-20.57-4.12-42.51-1.37-61.7,11,27.42-9.6,59-2.74,80.9,19.19,30.16,31.54,30.16,82.27,0,112.44a75.86,75.86,0,0,1-12.34,9.6c11-4.11,21.93-9.6,30.16-19.2,21.94-21.94,27.42-53.47,19.2-80.9C323.59,212.72,303,193.52,290.68,168.84Z"/><path class="cls-4" d="M420.94,347.09h0C371.58,439,256.4,473.24,165.9,422.51,74,373.14,41.13,256.59,90.49,164.72c32.91-60.33,93.24-96,157.68-98.72,8.23,0,15.09,4.11,19.2,12.34a54.22,54.22,0,0,1,5.48,30.17v12.34c0,19.19,5.49,38.39,13.72,54.84A85.34,85.34,0,0,0,181,215.46c-23.31,42.5-6.86,94.61,34.27,117.92s94.62,6.86,116.55-34.28h0c12.35-23.31,13.72-50.73,4.12-74A118,118,0,0,0,389.4,237.4a124.18,124.18,0,0,0,31.54-4.12c5.49-1.37,12.34-1.37,16.46,1.37s6.85,5.49,6.85,9.6C445.62,278.53,437.4,314.18,420.94,347.09Z"/><path class="cls-5" d="M371.58,310.07l6.85-2.74h0C383.92,321,377.06,333.38,373,343v1.37c-2.74,5.48-5.48,9.6-5.48,13.71-1.38,6.86-1.38,13.71,0,17.83a15.66,15.66,0,0,0,11,9.59c4.12,1.38,11,0,19.2-5.48a190.82,190.82,0,0,0,45.25-134.38c0-4.11-2.74-8.22-6.86-11s-11-2.74-16.45-1.37a113.93,113.93,0,0,1-30.17,4.12c-19.19,0-37-4.12-53.47-13.71,9.6,23.31,8.23,49.36-2.74,72.67-1.38,4.11-4.12,6.85-6.86,11,5.48-1.37,11-4.12,19.2-9.6C355.12,290.87,367.47,297.73,371.58,310.07Zm0,0c4.11,11-1.37,20.57-5.49,30.17-2.74,5.48-5.48,11-6.85,16.45ZM240,170.21h0c-19.2,5.48-34.28,2.74-45.25-2.74C183.73,160.61,174.13,151,170,140c-5.49-12.34-6.86-24.68-4.12-35.65s8.23-19.19,16.46-23.31c23.31-9.6,48-15.08,71.3-15.08,6.85,0,12.34,4.11,16.45,11s5.49,16.45,4.12,24.68c-1.38,5.49-1.38,12.34-1.38,19.2,0,19.19,5.49,38.39,13.72,54.84A78.89,78.89,0,0,0,240,170.21Z"/><circle class="cls-6" cx="112.43" cy="212.72" r="9.6"/><circle class="cls-6" cx="255.03" cy="384.11" r="9.6"/><circle class="cls-6" cx="194.7" cy="392.34" r="16.45"/></svg>