<svg id="Layer_1" data-name="Layer 1" xmlns="http://www.w3.org/2000/svg" viewBox="0 0 512 512"><defs><style>.cls-1{fill:#fff;}.cls-2{fill:#00cba8;}.cls-3{fill:#0db1f9;}</style></defs><circle class="cls-1" cx="256" cy="256" r="256"/><path class="cls-2" d="M210.71,188.88h126a131.52,131.52,0,0,1,42.15,6.83c.58-71.61-57.76-129.56-130.15-129.56H122.51A35.64,35.64,0,0,0,87,101.66v186a35.51,35.51,0,0,0,35.51,35.51H175V224.39A35.56,35.56,0,0,1,210.71,188.88Z"/><path class="cls-3" d="M378.9,195.71v4.49A128.6,128.6,0,0,1,250.51,323.12H175.19v87.22a35.51,35.51,0,0,0,35.52,35.51h127.8A128.47,128.47,0,0,0,466.9,322.93c2.34-59.13-35.13-109.47-88-127.22Z"/></svg>