<svg id="Layer_1" data-name="Layer 1" xmlns="http://www.w3.org/2000/svg" xmlns:xlink="http://www.w3.org/1999/xlink" viewBox="0 0 512 512"><defs><style>.cls-1{fill:url(#linear-gradient);}.cls-2{fill:#fff;}</style><linearGradient id="linear-gradient" x1="434.45" y1="434.45" x2="106.26" y2="106.26" gradientUnits="userSpaceOnUse"><stop offset="0.16" stop-color="#003cda"/><stop offset="1" stop-color="#33dfcc"/></linearGradient></defs><path class="cls-1" d="M512,256c0,141.38-114.62,256-256,256S0,397.38,0,256a257.26,257.26,0,0,1,4.74-49.28,254,254,0,0,1,15.74-51.2A255.66,255.66,0,0,1,256,0C397.38,0,512,114.62,512,256Z"/><path class="cls-2" d="M204.8,5.12V117.76H153.6V21.3A254.6,254.6,0,0,1,204.8,5.12Z"/><path class="cls-2" d="M361,225.28v67.84a69.92,69.92,0,0,1-69.76,69.76H223.36a69.92,69.92,0,0,1-69.76-69.76V243.2h51.2v49.28A18.57,18.57,0,0,0,223.36,311H291.2a18.57,18.57,0,0,0,18.56-18.56v-67.2a18.57,18.57,0,0,0-18.56-18.56H4.74a254,254,0,0,1,15.74-51.2H291.2A69.92,69.92,0,0,1,361,225.28Z"/></svg>