<svg id="Layer_1" data-name="Layer 1" xmlns="http://www.w3.org/2000/svg" viewBox="0 0 512 512"><defs><style>.cls-1{fill:#d9b432;}.cls-2{fill:#fff;}</style></defs><circle class="cls-1" cx="256" cy="256" r="256"/><path class="cls-2" d="M172.34,382.3c-37.74,0-69.19-30.19-69.19-67.93h32.71c0,18.87,16.36,35.22,35.23,35.22s35.22-16.35,35.22-35.22H239C241.53,352.11,210.08,382.3,172.34,382.3Z"/><path class="cls-2" d="M418.91,304.3a78.92,78.92,0,0,0-79.25-79.25c-45.29,0-80.52,35.22-80.52,79.25,0,42.77,36.49,78,80.52,78S420.17,347.07,418.91,304.3Zm-79.25,45.29c-26.42,0-47.81-21.38-47.81-46.54,0-26.42,21.39-46.55,47.81-46.55,26.41,1.26,47.8,21.39,47.8,46.55C387.46,329.46,366.07,349.59,339.66,349.59Z"/><path class="cls-2" d="M408.85,198.63a73.43,73.43,0,0,1-7.55,32.71c-8.81-6.29-18.87-12.58-28.94-16.35a38.75,38.75,0,0,0,3.78-16.36c0-18.87-16.36-35.22-35.23-35.22A35.63,35.63,0,0,0,309.46,215c-10.06,3.77-20.12,8.8-28.93,16.35C274.24,221.28,273,210,273,198.63c-1.26-37.74,28.94-67.93,66.68-67.93S408.85,160.89,408.85,198.63Z"/><path class="cls-2" d="M172.34,130.7c-44,0-79.25,36.48-79.25,79.25s35.22,78,79.25,78,80.52-35.22,80.52-78C252.86,165.93,216.37,130.7,172.34,130.7Zm-1.25,125.8c-26.42,0-47.81-21.39-47.81-46.55,0-26.41,21.39-46.54,47.81-46.54,27.67,0,47.8,20.13,47.8,46.54S197.5,256.5,171.09,256.5Z"/></svg>