<svg id="Layer_1" data-name="Layer 1" xmlns="http://www.w3.org/2000/svg" viewBox="0 0 512 512"><defs><style>.cls-1{fill:#fff;}.cls-2{fill:#fbcc5c;}.cls-3{fill:#35d07f;}.cls-4{fill:#5ea33b;}</style></defs><circle class="cls-1" cx="256" cy="256" r="256"/><path id="Bottom_Ring" data-name="Bottom Ring" class="cls-2" d="M210.74,425.74A124.48,124.48,0,1,0,86.26,301.26,124.46,124.46,0,0,0,210.74,425.74Zm0,45.26A169.74,169.74,0,1,1,380.47,301.26,169.75,169.75,0,0,1,210.74,471Z"/><path id="Top_Ring" data-name="Top Ring" class="cls-3" d="M301.26,335.21A124.48,124.48,0,1,0,176.79,210.74,124.46,124.46,0,0,0,301.26,335.21Zm0,45.26A169.74,169.74,0,1,1,471,210.74,169.73,169.73,0,0,1,301.26,380.47Z"/><path id="Rings_Overlap" data-name="Rings Overlap" class="cls-4" d="M306.88,380.47a124,124,0,0,0,24.66-48.93,124.55,124.55,0,0,0,48.93-24.66,168.43,168.43,0,0,1-13.21,60.42A168.83,168.83,0,0,1,306.88,380.47Zm-126.42-200a124.55,124.55,0,0,0-48.93,24.66,168,168,0,0,1,13.21-60.38,170.36,170.36,0,0,1,60.38-13.21A124,124,0,0,0,180.46,180.46Z"/></svg>