<svg id="Layer_1" data-name="Layer 1" xmlns="http://www.w3.org/2000/svg" viewBox="0 0 512 512"><defs><style>.cls-1{fill:#1f1a23;}.cls-2{fill:#ffb0c2;}.cls-3{fill:#cc91f0;}.cls-4{fill:#cb65b7;}</style></defs><circle class="cls-1" cx="256" cy="256" r="256"/><path class="cls-2" d="M325.68,330.19a76.68,76.68,0,1,1,0-71.7h79.78c-16-66.71-75.88-116.44-147.57-116.44a151.89,151.89,0,1,0,0,303.77c71.43,0,131.13-49.32,147.44-115.76H325.68Z"/><path class="cls-3" d="M378,201.35a76.15,76.15,0,1,0-124.26-59H258A150.51,150.51,0,0,1,378,201.35Z"/><path class="cls-4" d="M329.85,218.47A76.18,76.18,0,0,0,378,201.35a151.16,151.16,0,0,0-120.08-59h-4.32A76.37,76.37,0,0,0,329.85,218.47Z"/></svg>