<svg id="Layer_1" data-name="Layer 1" xmlns="http://www.w3.org/2000/svg" viewBox="0 0 512 512"><defs><style>.cls-1{fill:#231f20;}.cls-2{fill:#fff;fill-rule:evenodd;}</style></defs><circle class="cls-1" cx="256" cy="256" r="256"/><path class="cls-2" d="M420.26,115.55l2.13,12.89a242.14,242.14,0,0,1,2.33,36.2,334,334,0,0,1-9.61,79.4,297.72,297.72,0,0,1-44.29,98.64C347,377,312.43,410.79,262.11,437.92L256,441.24l-6.16-3.32C199.49,410.79,165,377,141.09,342.68A297.9,297.9,0,0,1,96.81,244a334.41,334.41,0,0,1-9.62-79.39,242.31,242.31,0,0,1,2.33-36.2l2.13-12.89a8.11,8.11,0,0,0-1.37-6.06A8.12,8.12,0,0,0,85,106.21,8,8,0,0,0,79,107.63,8,8,0,0,0,76.8,110a8.15,8.15,0,0,0-1.1,3l-2.13,12.89A257.56,257.56,0,0,0,71,164.65,350.54,350.54,0,0,0,81.09,248a313.85,313.85,0,0,0,46.75,104c25.2,36.27,61.75,71.94,114.35,100.24l10,5.38a8,8,0,0,0,7.66,0l10-5.38c52.54-28.32,89.11-64,114.35-100.24a314,314,0,0,0,46.72-104A350.54,350.54,0,0,0,441,164.67a257.47,257.47,0,0,0-2.56-38.84l-2.13-12.89a8.13,8.13,0,0,0-1.1-3,8.23,8.23,0,0,0-2.16-2.32,8.13,8.13,0,0,0-6.05-1.42,8.25,8.25,0,0,0-3,1.12,8.14,8.14,0,0,0-2.31,2.18,8.08,8.08,0,0,0-1.37,6.06l-.09,0Z"/><path class="cls-2" d="M135.83,106.77,256,70.06l122.83,37.5A8.11,8.11,0,0,0,383.52,92L258.33,53.81a8,8,0,0,0-4.71,0L131.1,91.21a8.05,8.05,0,0,0-2.8,1.49,7.85,7.85,0,0,0-2,2.45,8.1,8.1,0,0,0,.88,9,8,8,0,0,0,2.46,2,8.06,8.06,0,0,0,3,.91,8.24,8.24,0,0,0,3.16-.32v0Z"/><path class="cls-2" d="M76.5,117.92l172.25,336.2a8.08,8.08,0,0,0,14.32.12l105-196.46.16-.31L435.5,117.7a8.1,8.1,0,0,0-14.57-7.06L353.81,250.3,256.19,433,90.89,110.52a8.21,8.21,0,0,0-2-2.51,8,8,0,0,0-2.76-1.56,7.85,7.85,0,0,0-3.15-.38,8,8,0,0,0-3.06.86,8.11,8.11,0,0,0-2.49,2,8.14,8.14,0,0,0-1.88,5.94,8.1,8.1,0,0,0,.9,3Z"/></svg>