<svg id="Layer_1" data-name="Layer 1" xmlns="http://www.w3.org/2000/svg" viewBox="0 0 512 512"><defs><style>.cls-1{fill:#fff;}.cls-2{fill:#3ab03e;}</style></defs><circle class="cls-1" cx="256" cy="256" r="256"/><path class="cls-2" d="M280.42,272.6a49.83,49.83,0,1,0-43.71,0v61.7h43.71V272.6M258.56,415.93c-87.91,0-159.42-71.74-159.42-159.93S170.66,96.09,258.56,96.09c71.74,0,132.54,47.76,152.49,113.26H466C444.8,114,360,42.77,258.56,42.77,141.17,42.77,46,138.23,46,256s95.17,213.23,212.56,213.23C360,469.23,444.8,398,466,302.65H411.06c-20,65.51-80.76,113.28-152.5,113.28"/></svg>