<svg id="Layer_1" data-name="Layer 1" xmlns="http://www.w3.org/2000/svg" viewBox="0 0 512 512"><defs><style>.cls-1{fill:#ffe804;}.cls-2{fill-rule:evenodd;}</style></defs><circle class="cls-1" cx="256" cy="256" r="256"/><path class="cls-2" d="M293.49,124a35.26,35.26,0,0,0,2.74-11.52c.91-7.68-.92-13.72-5.49-15.55-4.39-1.82-10.05,1.1-15,6.77v-1.1c0-15.72-7.32-28.71-16.46-28.71s-16.46,12.8-16.46,28.71a19.06,19.06,0,0,0,.19,3.29c-5.49-7.31-12.8-11.15-17.92-8.77-6.4,3.11-7.32,14.63-1.83,26a51.77,51.77,0,0,0,4.2,6.77c-70.4,11-110.44,66.56-115.56,158h39.31c4.21-75.34,43.16-118.13,108.07-118.13,58.15,0,101.67,41,101.12,118.13h39.32c.73-91.07-50.84-149.95-109.9-157.63a29.47,29.47,0,0,0,3.66-6.21Z"/><path class="cls-2" d="M209.92,222.17v25.42c0,5.67,5.85,10.24,13,10.24s13-4.57,13-10.24V222.17c0-5.67-5.86-10.24-13-10.24S209.92,216.5,209.92,222.17ZM290,211.93c-6.58,0-12.07,4.57-12.07,10.24v25.42c0,5.67,5.31,10.24,12.07,10.24,6.58,0,12.07-4.57,12.07-10.24V222.17c0-5.67-5.49-10.24-12.07-10.24"/><path class="cls-2" d="M230.4,356a22,22,0,0,1-4.21,7.32,18.29,18.29,0,0,1-6.4,4.75,19,19,0,0,1-7.86,1.83,16.59,16.59,0,0,1-7.86-1.83,20.2,20.2,0,0,1-6.4-4.75,22.56,22.56,0,0,1-4.21-7.32,26,26,0,0,1-1.46-9.14,30,30,0,0,1,1.46-9.14,22,22,0,0,1,4.21-7.32,18.38,18.38,0,0,1,6.4-4.75,19.73,19.73,0,0,1,7.86-1.83,16.56,16.56,0,0,1,7.86,1.83,20.09,20.09,0,0,1,6.4,4.75,22,22,0,0,1,4.21,7.32,30,30,0,0,1,1.46,9.14A21.23,21.23,0,0,1,230.4,356m18.65-24.32a39.79,39.79,0,0,0-8.23-12.43,39.14,39.14,0,0,0-27.61-11.34,39.57,39.57,0,0,0-27.79,11.34,37.73,37.73,0,0,0-8.23,12.43,39.49,39.49,0,0,0,0,30.72,38.74,38.74,0,0,0,8.23,12.44,39.28,39.28,0,0,0,27.79,11.33,39.19,39.19,0,0,0,35.84-54.49M142.63,356a28.45,28.45,0,0,1-3.84,7.32,16.53,16.53,0,0,1-5.85,4.75,15.85,15.85,0,0,1-7.13,1.83H113.92V323.84h11.89a13.84,13.84,0,0,1,7.13,1.83,21.56,21.56,0,0,1,5.85,4.94,23.43,23.43,0,0,1,3.84,7.31,30.06,30.06,0,0,1,1.46,9.14,28,28,0,0,1-1.46,9m20.3-24.32a40,40,0,0,0-8.23-12.43A37.08,37.08,0,0,0,142.45,311a38.91,38.91,0,0,0-15.18-3.11H96V386h31.27a38.76,38.76,0,0,0,15.18-2.92,38.33,38.33,0,0,0,12.25-8.23,39.07,39.07,0,0,0,8.23-12.44,38.68,38.68,0,0,0,2.92-15.17,36.38,36.38,0,0,0-2.92-15.55M394.42,356a21.76,21.76,0,0,1-4.2,7.32,18.38,18.38,0,0,1-6.4,4.75,19.05,19.05,0,0,1-7.87,1.83,16.59,16.59,0,0,1-7.86-1.83,20.2,20.2,0,0,1-6.4-4.75,22.35,22.35,0,0,1-4.2-7.32,25.8,25.8,0,0,1-1.47-9.14,29.71,29.71,0,0,1,1.47-9.14,21.76,21.76,0,0,1,4.2-7.32,20.2,20.2,0,0,1,6.4-4.75,19,19,0,0,1,7.86-1.83,16.12,16.12,0,0,1,7.87,1.83,18.38,18.38,0,0,1,6.4,4.75,21.76,21.76,0,0,1,4.2,7.32,25.16,25.16,0,0,1,1.47,9.14,21.38,21.38,0,0,1-1.47,9.14m18.47-24.32a39.79,39.79,0,0,0-8.23-12.43,39.14,39.14,0,0,0-27.61-11.34,39.57,39.57,0,0,0-27.79,11.34A37.73,37.73,0,0,0,341,331.7a36.61,36.61,0,0,0-2.93,15.36A39.58,39.58,0,0,0,341,362.42a38.74,38.74,0,0,0,8.23,12.44,39.28,39.28,0,0,0,27.79,11.33A39,39,0,0,0,416,347.06a36,36,0,0,0-3.11-15.36M306.65,356a27.84,27.84,0,0,1-3.84,7.32,16.36,16.36,0,0,1-5.85,4.75,15.82,15.82,0,0,1-7.13,1.83H277.94V323.84h11.89a13.81,13.81,0,0,1,7.13,1.83,21.41,21.41,0,0,1,5.85,4.94,23,23,0,0,1,3.84,7.31,29.76,29.76,0,0,1,1.46,9.14,33.66,33.66,0,0,1-1.46,9M327,331.7a40,40,0,0,0-8.23-12.43A37,37,0,0,0,306.47,311a38.91,38.91,0,0,0-15.18-3.11H260V386h31.27a38.76,38.76,0,0,0,15.18-2.92,38.22,38.22,0,0,0,12.25-8.23,38.75,38.75,0,0,0,11.15-27.61A36.23,36.23,0,0,0,327,331.7"/></svg>