<svg id="Layer_1" data-name="Layer 1" xmlns="http://www.w3.org/2000/svg" viewBox="0 0 512 512"><defs><style>.cls-1{fill:#fff;}.cls-2{fill:#0d022b;fill-rule:evenodd;}</style></defs><circle class="cls-1" cx="256" cy="256" r="256"/><path class="cls-2" d="M367.17,144.25a6.39,6.39,0,0,1,0-9.85,8.33,8.33,0,0,1,10.71,0,6.39,6.39,0,0,1,0,9.85,9.06,9.06,0,0,1-5.21,2A5.85,5.85,0,0,1,367.17,144.25Z"/><path class="cls-2" d="M348.64,164.22a7,7,0,0,1,0-9.84,7.16,7.16,0,0,1,9.84,0,7,7,0,0,1-9.84,9.84Z"/><path class="cls-2" d="M328.38,183.33a7,7,0,0,1-2-4.92,7.52,7.52,0,0,1,2-4.92,7.16,7.16,0,0,1,9.84,0,7,7,0,0,1,2,4.92,7.54,7.54,0,0,1-2,4.92,6.35,6.35,0,0,1-4.92,2A7,7,0,0,1,328.38,183.33Z"/><path class="cls-2" d="M309,202.73a6.19,6.19,0,0,1-2.32-4.92,6.64,6.64,0,0,1,2.32-4.93,8.33,8.33,0,0,1,10.71,0,6.39,6.39,0,0,1,0,9.85,7.41,7.41,0,0,1-5.21,2A7,7,0,0,1,309,202.73Z"/><path class="cls-2" d="M290.45,222.12a5.94,5.94,0,0,1-2-4.92,7.56,7.56,0,0,1,2-4.92,7.18,7.18,0,0,1,9.84,0,6,6,0,0,1,2,4.92,7,7,0,0,1-2,4.92,6,6,0,0,1-4.92,2A4.89,4.89,0,0,1,290.45,222.12Z"/><path class="cls-2" d="M268.16,236.6a7.58,7.58,0,0,1,2-4.92,7.17,7.17,0,0,1,9.85,0,6.36,6.36,0,0,1,2,4.92,7.58,7.58,0,0,1-2,4.92,7,7,0,0,1-4.92,2,7.57,7.57,0,0,1-4.93-2A6,6,0,0,1,268.16,236.6Z"/><path class="cls-2" d="M232,279.45a7,7,0,0,1-2-4.92,7.57,7.57,0,0,1,2-4.93,7.18,7.18,0,0,1,9.84,0,6.36,6.36,0,0,1,2,4.93,7.56,7.56,0,0,1-2,4.92,6,6,0,0,1-4.92,2A5.12,5.12,0,0,1,232,279.45Z"/><path class="cls-2" d="M212,298.85a6.19,6.19,0,0,1-2.31-4.93A6.62,6.62,0,0,1,212,289a8.33,8.33,0,0,1,10.71,0,6.39,6.39,0,0,1,0,9.85,7.44,7.44,0,0,1-5.21,2A6.32,6.32,0,0,1,212,298.85Z"/><path class="cls-2" d="M193.17,318.53a7,7,0,0,1,0-9.84,7.17,7.17,0,0,1,9.85,0,7,7,0,0,1,2,4.92,7.53,7.53,0,0,1-2,4.92,6.35,6.35,0,0,1-4.92,2C196.07,320.56,194.91,319.69,193.17,318.53Z"/><path class="cls-2" d="M173.78,337.93a6,6,0,0,1-2-4.92,7.52,7.52,0,0,1,2-4.92,7.16,7.16,0,0,1,9.84,0,7.52,7.52,0,0,1,2,4.92,7,7,0,0,1-2,4.92,7,7,0,0,1-9.84,0Z"/><path class="cls-2" d="M153.8,357.33a6.19,6.19,0,0,1-2.32-4.93,6.63,6.63,0,0,1,2.32-4.92,7.55,7.55,0,0,1,10.13,0,6.63,6.63,0,0,1,2.32,4.92,6.19,6.19,0,0,1-2.32,4.93,9,9,0,0,1-5.21,2A6,6,0,0,1,153.8,357.33Z"/><path class="cls-2" d="M134.69,376.72a6.32,6.32,0,0,1-2-4.92,7.55,7.55,0,0,1,2-4.92,7.17,7.17,0,0,1,9.85,0,6.38,6.38,0,0,1,2,4.92,7.56,7.56,0,0,1-2,4.92,7,7,0,0,1-4.93,2C138.17,379,136.43,378.17,134.69,376.72Z"/><path class="cls-2" d="M144.54,144.25a7,7,0,0,0,0-9.85,7.19,7.19,0,0,0-9.85,0,6.34,6.34,0,0,0-2,4.92,7.56,7.56,0,0,0,2,4.93,7,7,0,0,0,4.92,2A4.71,4.71,0,0,0,144.54,144.25Z"/><path class="cls-2" d="M163.93,164.22a6.38,6.38,0,0,0,0-9.84,8.3,8.3,0,0,0-10.71,0,6.39,6.39,0,0,0,0,9.84,9,9,0,0,0,5.21,2A11.41,11.41,0,0,0,163.93,164.22Z"/><path class="cls-2" d="M183.62,183.33a7,7,0,0,0,2-4.92,7.52,7.52,0,0,0-2-4.92,7.16,7.16,0,0,0-9.84,0,7,7,0,0,0-2,4.92,7.54,7.54,0,0,0,2,4.92,6.33,6.33,0,0,0,4.92,2A8.2,8.2,0,0,0,183.62,183.33Z"/><path class="cls-2" d="M203,202.73a7,7,0,0,0,2-4.92,7.56,7.56,0,0,0-2-4.93,7.19,7.19,0,0,0-9.85,0,7,7,0,0,0,0,9.85,6.35,6.35,0,0,0,4.93,2A5.83,5.83,0,0,0,203,202.73Z"/><path class="cls-2" d="M222.12,222.12a6.16,6.16,0,0,0,2.32-4.92,6.63,6.63,0,0,0-2.32-4.92,7.55,7.55,0,0,0-10.13,0,6.39,6.39,0,0,0,0,9.84,7.44,7.44,0,0,0,5.21,2A4.88,4.88,0,0,0,222.12,222.12Z"/><path class="cls-2" d="M243.84,236.6a7.54,7.54,0,0,0-2-4.92,7.16,7.16,0,0,0-9.84,0,6.34,6.34,0,0,0-2,4.92,7.54,7.54,0,0,0,2,4.92,7,7,0,0,0,4.92,2,7.54,7.54,0,0,0,4.92-2A6,6,0,0,0,243.84,236.6Z"/><path class="cls-2" d="M261.21,261.21a6.35,6.35,0,0,0,2-4.92,7.52,7.52,0,0,0-2-4.92,7.16,7.16,0,0,0-9.84,0,6.33,6.33,0,0,0-2,4.92,7.56,7.56,0,0,0,2,4.92,7,7,0,0,0,9.84,0Z"/><path class="cls-2" d="M280.61,279.45a6.21,6.21,0,0,0,2.31-4.92,6.66,6.66,0,0,0-2.31-4.93,7.56,7.56,0,0,0-10.14,0,6.41,6.41,0,0,0,0,9.85,7.43,7.43,0,0,0,5.21,2A5.36,5.36,0,0,0,280.61,279.45Z"/><path class="cls-2" d="M300.29,298.85a7,7,0,0,0,2-4.93,7.56,7.56,0,0,0-2-4.92,7.18,7.18,0,0,0-9.84,0,7,7,0,0,0,0,9.85,6.36,6.36,0,0,0,4.92,2C296.82,301.16,298.85,300.29,300.29,298.85Z"/><path class="cls-2" d="M319.69,318.53a7,7,0,0,0,0-9.84,7.16,7.16,0,0,0-9.84,0,7,7,0,0,0-2,4.92,7.54,7.54,0,0,0,2,4.92,6.33,6.33,0,0,0,4.92,2A7.56,7.56,0,0,0,319.69,318.53Z"/><path class="cls-2" d="M337.93,337.93a6,6,0,0,0,2-4.92,7.52,7.52,0,0,0-2-4.92,7.16,7.16,0,0,0-9.84,0,7.52,7.52,0,0,0-2,4.92,7,7,0,0,0,2,4.92,7,7,0,0,0,9.84,0Z"/><path class="cls-2" d="M358.48,357.33a6,6,0,0,0,2-4.93,7.56,7.56,0,0,0-2-4.92,7.18,7.18,0,0,0-9.84,0,6.35,6.35,0,0,0-2,4.92,6.91,6.91,0,0,0,6.95,7A6,6,0,0,0,358.48,357.33Z"/><path class="cls-2" d="M377.88,376.72a6.38,6.38,0,0,0,0-9.84,7.53,7.53,0,0,0-10.13,0,6.38,6.38,0,0,0,0,9.84,9,9,0,0,0,5.21,2C374.41,379,376.14,378.17,377.88,376.72Z"/><path class="cls-2" d="M190.57,149.75c19.68-13,41.4-19.11,65.43-19.4a118.39,118.39,0,0,1,65.43,19.4l41.69-41.69c-32.72-24.9-68-37.35-107.12-37.35s-75,12.45-106.83,37.35Z"/><path class="cls-2" d="M148.88,320.85c-13.32-20.27-19.69-41.69-19.69-64.85a113.21,113.21,0,0,1,19.69-64.85l-41.4-41.4C83.16,181.59,71,216.91,71,256.29c0,38.79,12.16,74.4,36.77,106.83Z"/><path class="cls-2" d="M321.14,362.25a116.33,116.33,0,0,1-64.85,20.55c-24,0-46-6.37-65.72-20.26l-41.69,41.4c32.13,25.19,68,37.63,107.41,37.34,39.08-.28,74.4-13,106.25-37.34Z"/><path class="cls-2" d="M362,190.57c13.32,20.26,20.26,42.27,19.69,66A116.35,116.35,0,0,1,362,320.27l41.69,41.4c24.61-31.85,37.35-67.17,37.35-106,.28-39.38-12.16-75.27-37.35-107.41Z"/><path class="cls-2" d="M405.39,375.28a29.24,29.24,0,1,1-29.25,29.24A29.34,29.34,0,0,1,405.39,375.28Z"/><path class="cls-2" d="M107.19,375.28a29.09,29.09,0,0,1,28.95,29.24c0,15.92-13,29.24-28.95,29.24a29.24,29.24,0,0,1,0-58.48Z"/><path class="cls-2" d="M406,77.08A29.24,29.24,0,1,1,377,106.32,29.1,29.1,0,0,1,406,77.08Z"/><path class="cls-2" d="M106.61,77.08c15.92,0,29.24,13,29.24,29A29.1,29.1,0,0,1,106.61,135C90.69,135,77.37,122,77.37,106A29.1,29.1,0,0,1,106.61,77.08Z"/></svg>