<svg id="Layer_1" data-name="Layer 1" xmlns="http://www.w3.org/2000/svg" xmlns:xlink="http://www.w3.org/1999/xlink" viewBox="0 0 512 512"><defs><style>.cls-1{fill:#fff;}.cls-2{fill:url(#linear-gradient);}.cls-3{fill:#a0a8d4;}.cls-4{fill:url(#linear-gradient-2);}.cls-5{fill:url(#linear-gradient-3);}</style><linearGradient id="linear-gradient" x1="260.34" y1="-274.15" x2="89.65" y2="-459.2" gradientTransform="matrix(1, 0, 0, -1, -6, -247.64)" gradientUnits="userSpaceOnUse"><stop offset="0.58" stop-color="#a0a8d4"/><stop offset="0.73" stop-color="#8791c7"/><stop offset="0.91" stop-color="#6470b4"/></linearGradient><linearGradient id="linear-gradient-2" x1="263.93" y1="-733.52" x2="434.56" y2="-548.6" xlink:href="#linear-gradient"/><linearGradient id="linear-gradient-3" x1="261.98" y1="-266.32" x2="261.98" y2="-740.38" gradientTransform="matrix(1, 0, 0, -1, -6, -247.64)" gradientUnits="userSpaceOnUse"><stop offset="0" stop-color="#513eff"/><stop offset="0.18" stop-color="#5157ff"/><stop offset="0.57" stop-color="#5298ff"/><stop offset="1" stop-color="#52e5ff"/></linearGradient></defs><circle class="cls-1" cx="256" cy="256" r="256"/><g id="Layer_1-2" data-name="Layer 1"><path class="cls-2" d="M99.07,211.56c4.64,9.87,16.26,29.63,16.26,29.63L248.37,21,118.82,111.63A62.51,62.51,0,0,0,100.23,132C88,157,88,186,99.07,211.56Z"/><path class="cls-3" d="M46.78,283.6a148.29,148.29,0,0,0,58.1,107.47L248.37,491S158.32,361.45,82.8,232.47a128.62,128.62,0,0,1-15.11-44.15,63.32,63.32,0,0,1,0-20.92c-1.74,3.49-5.81,11-5.81,11a185.39,185.39,0,0,0-15.68,50A249.36,249.36,0,0,0,46.78,283.6Z"/><path class="cls-4" d="M412.79,301c-4.65-9.87-16.27-29.62-16.27-29.62L263.48,491,393.61,401a62.43,62.43,0,0,0,18.6-20.33A95.26,95.26,0,0,0,412.79,301Z"/><path class="cls-3" d="M465.65,228.4a148.32,148.32,0,0,0-58.09-107.47L264.06,21s90.05,129.55,165.57,258.53a128.2,128.2,0,0,1,15.11,44.15,63.32,63.32,0,0,1,0,20.92c1.74-3.49,5.81-11,5.81-11a188.08,188.08,0,0,0,15.68-49.38A355,355,0,0,0,465.65,228.4Z"/><path class="cls-5" d="M100.23,132c4.65-8.13,10.45-15.1,18.59-20.33L248.37,21l-133,219.6S103.71,220.85,99.07,211A94,94,0,0,1,100.23,132ZM46.78,283.6a148.29,148.29,0,0,0,58.1,107.47L248.37,491S158.32,361.45,82.8,232.47a128.62,128.62,0,0,1-15.11-44.15,63.32,63.32,0,0,1,0-20.92c-1.74,3.49-5.81,11-5.81,11a185.39,185.39,0,0,0-15.68,50A249.36,249.36,0,0,0,46.78,283.6Zm366,17.42c-4.65-9.87-16.27-29.62-16.27-29.62L263.48,491,393.61,401a62.43,62.43,0,0,0,18.6-20.33,95.26,95.26,0,0,0,.58-79.6Zm52.28-72A148.32,148.32,0,0,0,407,121.51L264.06,21s90.05,129.55,165.57,258.53a128.2,128.2,0,0,1,15.11,44.15,63.32,63.32,0,0,1,0,20.92c1.74-3.49,5.81-11,5.81-11a188.08,188.08,0,0,0,15.68-49.38C467.4,265,467.4,247,465.07,229Z"/></g></svg>