<svg id="Layer_1" data-name="Layer 1" xmlns="http://www.w3.org/2000/svg" viewBox="0 0 512 512"><defs><style>.cls-1{fill:#fff;}.cls-2{fill:#343434;}.cls-3{fill:#8c8c8c;}.cls-4{fill:#3c3c3b;}.cls-5{fill:#141414;}.cls-6{fill:#393939;}</style></defs><circle class="cls-1" cx="256" cy="256" r="256"/><g id="Layer_1-2" data-name="Layer_1"><g id="_1421394342400" data-name=" 1421394342400"><polygon class="cls-2" points="255.96 16 252.74 26.94 252.74 344.32 255.96 347.54 403.28 260.45 255.96 16"/><polygon class="cls-3" points="255.96 16 108.63 260.45 255.96 347.54 255.96 193.49 255.96 16"/><polygon class="cls-4" points="255.96 375.43 254.14 377.64 254.14 490.7 255.96 496 403.37 288.39 255.96 375.43"/><polygon class="cls-3" points="255.96 496 255.96 375.43 108.63 288.39 255.96 496"/><polygon class="cls-5" points="255.96 347.54 403.28 260.45 255.96 193.49 255.96 347.54"/><polygon class="cls-6" points="108.63 260.45 255.96 347.54 255.96 193.49 108.63 260.45"/></g></g></svg>