<svg id="Layer_1" data-name="Layer 1" xmlns="http://www.w3.org/2000/svg" xmlns:xlink="http://www.w3.org/1999/xlink" viewBox="0 0 512 512"><defs><style>.cls-1{fill:url(#linear-gradient);}.cls-2{fill:url(#linear-gradient-2);}.cls-3{fill:url(#linear-gradient-3);}.cls-4{fill:#e35cc7;}.cls-5{fill:#8961d0;}.cls-10,.cls-6,.cls-7,.cls-8{isolation:isolate;}.cls-6,.cls-7{opacity:0.48;}.cls-6{fill:url(#linear-gradient-4);}.cls-7{fill:#480061;}.cls-8{opacity:0.75;fill:url(#linear-gradient-5);}.cls-9{fill:url(#linear-gradient-6);}.cls-10{opacity:0.43;fill:url(#linear-gradient-7);}</style><linearGradient id="linear-gradient" y1="256" x2="512" y2="256" gradientUnits="userSpaceOnUse"><stop offset="0"/><stop offset="0.38" stop-color="#020101"/><stop offset="0.52" stop-color="#090404"/><stop offset="0.61" stop-color="#140809"/><stop offset="0.69" stop-color="#250f10"/><stop offset="0.76" stop-color="#3b191a"/><stop offset="0.82" stop-color="#572426"/><stop offset="0.87" stop-color="#773134"/><stop offset="0.92" stop-color="#9d4144"/><stop offset="0.97" stop-color="#c65256"/><stop offset="1" stop-color="#e86065"/></linearGradient><linearGradient id="linear-gradient-2" x1="94.66" y1="183.91" x2="190" y2="183.91" gradientTransform="translate(0 2)" gradientUnits="userSpaceOnUse"><stop offset="0" stop-color="#4750d9"/><stop offset="0.41" stop-color="#5c45dc"/><stop offset="1" stop-color="#8131e1"/></linearGradient><linearGradient id="linear-gradient-3" x1="143.51" y1="254" x2="417.35" y2="254" gradientTransform="translate(0 2)" gradientUnits="userSpaceOnUse"><stop offset="0" stop-color="#e96161"/><stop offset="0.2" stop-color="#e65b76"/><stop offset="0.61" stop-color="#df4aac"/><stop offset="1" stop-color="#d739e6"/></linearGradient><linearGradient id="linear-gradient-4" x1="236.39" y1="153.93" x2="250.32" y2="153.93" gradientTransform="translate(0 2)" gradientUnits="userSpaceOnUse"><stop offset="0" stop-color="#b100d3"/><stop offset="0.23" stop-color="#9c00c0"/><stop offset="0.69" stop-color="#67008e"/><stop offset="1" stop-color="#40006a"/></linearGradient><linearGradient id="linear-gradient-5" x1="125.44" y1="160.88" x2="301.14" y2="160.88" gradientTransform="translate(0 2)" gradientUnits="userSpaceOnUse"><stop offset="0" stop-color="#d0d7d3"/><stop offset="0.52" stop-color="#d9c5e8"/><stop offset="1" stop-color="#e3b1ff"/></linearGradient><linearGradient id="linear-gradient-6" x1="124.83" y1="160.85" x2="220.1" y2="160.85" gradientTransform="translate(0 2)" gradientUnits="userSpaceOnUse"><stop offset="0" stop-color="#b277ec"/><stop offset="0.77" stop-color="#9336e7"/><stop offset="1" stop-color="#8921e6"/></linearGradient><linearGradient id="linear-gradient-7" x1="252.63" y1="170.14" x2="298.28" y2="170.14" gradientTransform="translate(0 2)" gradientUnits="userSpaceOnUse"><stop offset="0" stop-opacity="0.5"/><stop offset="0.1" stop-color="#201322" stop-opacity="0.59"/><stop offset="0.25" stop-color="#4a2c4e" stop-opacity="0.72"/><stop offset="0.4" stop-color="#6d4173" stop-opacity="0.82"/><stop offset="0.55" stop-color="#885190" stop-opacity="0.9"/><stop offset="0.7" stop-color="#9b5da4" stop-opacity="0.95"/><stop offset="0.85" stop-color="#a664b0" stop-opacity="0.99"/><stop offset="1" stop-color="#aa66b4"/></linearGradient></defs><circle class="cls-1" cx="256" cy="256" r="256"/><path class="cls-2" d="M190,161l-2.43,2.43-55.46,55.68L115.35,235.9a12.41,12.41,0,0,1-3.31,3.31,11.19,11.19,0,0,1-15.51-3.16l0-.05a11.08,11.08,0,0,1-1.84-6.27v-52.8a47.83,47.83,0,0,1,47.76-46.18H190l-13.9,14.12L160,161Z"/><path class="cls-3" d="M417.35,191.49V195a124.88,124.88,0,0,1-32.58,80.86l-157.39,158A47.47,47.47,0,0,1,195.69,446a65.39,65.39,0,0,1-9.47-.88L177,442.24a223.68,223.68,0,0,1-28.84-12.37l-2-1.1a6.65,6.65,0,0,1-2.65-5.53,7,7,0,0,1,1.32-4.19L321.37,241.64a16,16,0,0,0,2.21-3.09,36.8,36.8,0,0,0,2.64-6.63,29.83,29.83,0,0,0,.66-4.42,11.51,11.51,0,0,0,.22-2.87A29.55,29.55,0,0,0,297.63,195H233.11l43.36-43.52a12.37,12.37,0,0,0,3.3-3.31A11.51,11.51,0,0,0,278.25,134a11.21,11.21,0,0,0-7.94-3.3h-92s8.8-9.72,12.33-13.25c7.92-8.62,17.6-19.67,28.17-27.4a123.13,123.13,0,0,1,73.51-24,126.7,126.7,0,0,1,45.78,8.62l5.95,2.43a126.53,126.53,0,0,1,29.27,18.78l1.76,1.54h.22a125.92,125.92,0,0,1,42.05,93.9Z"/><path class="cls-4" d="M289.9,130.73H179l-51.73,51.92a7.32,7.32,0,0,0,1.24,11.19,7.2,7.2,0,0,0,4,1.18H252.7l46.44-46.83a9.93,9.93,0,0,0,2-6.19A11.23,11.23,0,0,0,290,130.73h-.05ZM243.67,163a7.24,7.24,0,0,1-5.06-2.06,7.32,7.32,0,0,1-2.2-5,7.58,7.58,0,0,1,1.1-3.76,7.14,7.14,0,0,1,2.2-2.21,6.9,6.9,0,0,1,3.74-1.1,7.07,7.07,0,0,1,.22,14.14h0Z"/><path class="cls-5" d="M193.27,130.73H178.08l-51.07,51a7.75,7.75,0,0,0-.1,11,7.42,7.42,0,0,0,1.26,1,7.69,7.69,0,0,0,4.34,1.26h23.56l64.05-64.29Z"/><path class="cls-5" d="M243.45,163a7.07,7.07,0,1,0-7-7.14v.07A7.07,7.07,0,0,0,243.45,163Z"/><path class="cls-6" d="M243.45,163a7.07,7.07,0,1,0-7-7.14v.07A7.07,7.07,0,0,0,243.45,163Z"/><path class="cls-7" d="M250.28,155.92a7.07,7.07,0,0,0-6.83-7.07,7.38,7.38,0,0,0-3.52,1,7.64,7.64,0,0,0-2.64,2.54,7.22,7.22,0,0,1,4.84-1.76,6.68,6.68,0,0,1,2.61.52,6.91,6.91,0,0,1,2.22,1.48,7.08,7.08,0,0,1,1.48,2.22,7,7,0,0,1,.52,2.63v.22a6,6,0,0,1-.88,3.31,6.88,6.88,0,0,0,2.2-5.08Z"/><path class="cls-8" d="M289.9,130.73H179l-51.51,51.92a7.34,7.34,0,0,0,1.1,11.1,7.24,7.24,0,0,0,4,1.27H252.7l46.44-46.83a9.93,9.93,0,0,0,2-6.19A11.23,11.23,0,0,0,290,130.73h-.05ZM243.45,163a6.91,6.91,0,0,1-2.69-.54,7,7,0,0,1-3.81-3.83,6.92,6.92,0,0,1-.54-2.7,7.58,7.58,0,0,1,1.1-3.76,7.14,7.14,0,0,1,2.2-2.21,6.9,6.9,0,0,1,3.74-1.1,7.07,7.07,0,0,1,6.83,7.07,7.26,7.26,0,0,1-6.83,7.07Z"/><path class="cls-9" d="M193.27,130.73H178.08l-51.07,51a7.75,7.75,0,0,0-.1,11,7.42,7.42,0,0,0,1.26,1,7.69,7.69,0,0,0,4.34,1.26h23.56l64.05-64.29Z"/><path class="cls-10" d="M265.91,195l32.35-45.73L252.7,195Z"/></svg>