<svg id="Layer_1" data-name="Layer 1" xmlns="http://www.w3.org/2000/svg" viewBox="0 0 512 512"><defs><style>.cls-1{fill:#fff;}.cls-2{fill:#02a6c2;}.cls-3{fill:#5fcade;}.cls-4{fill:#abebf4;}</style></defs><circle class="cls-1" cx="256" cy="256" r="256"/><g id="Layer_2" data-name="Layer 2"><g id="Layer_1-2" data-name="Layer 1-2"><path class="cls-2" d="M182.13,108.17H426V187H182.13Q182.08,147.56,182.13,108.17Z"/><path class="cls-3" d="M86.11,216.63q39.33-.19,78.69,0,.19,39.33,0,78.68-39.36.21-78.69,0Q85.89,256,86.11,216.63Z"/><path class="cls-3" d="M182.19,216.63q88-.19,176,0,.18,39.33,0,78.68-88,.19-176,0Q182,256,182.19,216.63Z"/><path class="cls-4" d="M182.27,325.11q39.27-.42,78.52,0,.42,39.24,0,78.53-39.27.39-78.52,0Q181.87,364.43,182.27,325.11Z"/></g></g></svg>