<svg id="Layer_1" data-name="Layer 1" xmlns="http://www.w3.org/2000/svg" viewBox="0 0 512 512"><defs><style>.cls-1{fill:#fff;}</style></defs><circle class="cls-1" cx="256" cy="256" r="256"/><path d="M130.12,236,236,130.12a22.67,22.67,0,0,0-32.06-32.06L98.06,203.89A22.67,22.67,0,0,0,130.12,236Zm250.15,38.49L274.44,380.27a22.67,22.67,0,0,0,32.06,32.06L412.33,306.5a22.67,22.67,0,0,0-32.06-32.06Zm12-186.8L87.64,392.29a22.68,22.68,0,1,0,32.07,32.07L424.36,119.71a22.68,22.68,0,1,0-32.07-32.07Z"/></svg>