<svg id="Layer_1" data-name="Layer 1" xmlns="http://www.w3.org/2000/svg" viewBox="0 0 512 512"><defs><style>.cls-1{fill:#fff;}.cls-2{fill:#060606;fill-rule:evenodd;}</style></defs><circle class="cls-1" cx="256" cy="256" r="256"/><path class="cls-2" d="M47,368.73c5.71,3,13.2,7.67,18.55,11.24,2,1.33,4.19,2.49,6.33,3.83,1.16.71,1.88,1.07,3,1.78a14.45,14.45,0,0,0,1.51,1c.63.35,1,.53,1.61.89l68.67,42.27c1,.54,1.87,1.16,2.94,1.78L211.85,470c.72.45,1,.54,1.61,1l29.79,18.29c1.33.71,1.87,1.6,3.39,1.69V258.14l-9.46-5.44c-.89-.45-1.42-.8-2.32-1.34l-7.4-4.28c-10.52-5.53-20.33-12.31-31-17.84-1.07-.53-1.42-.89-2.58-1.42l-9.46-5.44c-2.31-1.43-12.84-7.76-14.71-8.21v36.75l38.7,22.38c1.08.63,1.79,1.07,2.77,1.61s1.6,1.16,2.94,1.42V433.92c-6.78-4.55-14-8.65-21-12.84l-16.85-10.43c-6.87-4.64-14.27-8.48-21.14-13-.8-.53-1.25-.71-2.05-1.24l-14.89-9.19a41.38,41.38,0,0,1-4.28-2.68c-5.44-3.65-11.33-6.86-16.86-10.43-1.52-1-2.76-1.61-4.28-2.59-8.21-5.53-17-10.52-25.42-15.6-.71-.45-1.34-.9-2-1.34l-6.51-4V161.38c-1.25-.81-2.5-1.52-3.92-2.32s-2.5-1.43-3.93-2.32L51.06,145.32c-1.52-.8-2.68-1.69-4.11-2.41V368.73Z"/><path class="cls-2" d="M265.9,257.78v89.46l11.86-6.69c5.44-2.86,10.44-6.34,15.88-9.19a13.32,13.32,0,0,0,2.05-1.25c.71-.44,1.42-.71,2.14-1.07V276.33a5.54,5.54,0,0,0,2.23-1c.8-.53,1.33-.71,2.14-1.16,4.19-2.4,8.29-5.26,12.57-7.4,5.8-2.85,11.33-6.42,16.86-9.72,1.42-.8,2.58-1.52,4.1-2.41l8.38-4.72c.9-.54,1.16-.72,2.06-1.25,3.65-1.88,7-4.37,10.79-6.34l4.1-2.4a21.35,21.35,0,0,1,2.14-1.07L390.58,223c5.8-3,11.15-6.69,16.85-9.72l8.48-5c2.85-1.7,5.62-3.21,8.47-5,1.52-.89,2.76-1.51,4.1-2.41l4.46-2.49V351a7.47,7.47,0,0,0-2.67,1.34l-7.85,4.81c-.81.54-1.43,1-2.41,1.61s-1.78,1.16-2.68,1.69-1.51,1-2.49,1.52l-7.94,4.73c-7.14,4.1-13.82,8.74-21,12.84l-20.87,12.93c-1,.63-1.51.89-2.5,1.52-9.36,6.33-19.35,11.59-28.8,17.75-1.7,1.15-3.48,2.14-5.17,3.21L302.46,431c-.8.45-1.69,1-2.49,1.52-7.76,5.08-15.88,9.45-23.64,14.53l-10.61,6.51V491c1.78-.45,4.64-2.59,6.24-3.57,2.14-1.34,4.2-2.41,6.34-3.83,6-4,12.48-7.32,18.46-11.33,1.16-.71,2.05-1.34,3.12-2l15.78-9.72c1.07-.63,1.88-1.16,2.95-1.79l84-51.72,3.12-2,56.1-34.52a29.6,29.6,0,0,1,3.21-1.87V143.27c-1.61.36-1.88.89-3.12,1.61s-2,1.07-3,1.69l-18.64,10.79c-6.33,3.39-12.21,7.58-18.64,10.79l-49.85,28.72c-2.23,1.25-4,2.41-6.15,3.66l-9.19,5.35c-6.51,3.3-16,8.92-21.94,12.66-1.07.72-2,1-3,1.7L311.2,232a17.21,17.21,0,0,0-1.6,1l-6.33,3.48c-3.75,2-7,4.37-10.79,6.33-.9.45-.9.63-1.61,1l-6.33,3.48c-4.19,2.05-15.25,9.81-18.64,10.52Z"/><path class="cls-2" d="M59.35,127.93a11.44,11.44,0,0,1,3.12,1.61c4.19,2.23,7.94,4.9,12.22,7l33.89,19.62c16.14,9.81,32.91,18.55,49.14,28.36l3,1.7c1.16.62,2,1.16,3,1.69l18.46,10.7c.81.45.72.45,1.34.81,8.65,5.26,17.75,9.72,26.31,15.16l27.47,15.78c1.07.63,1.87,1.16,2.94,1.79,3.21,2,14.72,8.92,15.88,8.92,1.69,0,11.5-6.25,14-7.76l4.82-2.86c1.6-1,3-1.6,4.63-2.58l4.64-2.68,9.37-5.53c1.6-1,3-1.69,4.54-2.67l14.18-8c.9-.45,1.52-.89,2.32-1.34s1.34-.8,2.32-1.34l9.46-5.44c1.51-.89,3.21-2.23,5-2.67-.27-1.07-.45-1-1.34-1.52L299.88,179.3c-12,6.33-23.46,13.74-35.41,20.25a26.82,26.82,0,0,0-2.67,1.69c-1.88,1.16-3.57,2.14-5.53,3.21l-18.2-10.52c-6.33-3.21-12.13-7.4-18.46-10.7-1.42-.81-2.85-1.7-4.1-2.41l-36.92-21.23c-.72-.44-1.34-.8-2.05-1.25s-1.34-.71-2.14-1.16l-47.27-27.29a5.28,5.28,0,0,0-2.23-1.07c1-1.42,2.14-1.51,3.75-2.49,1.33-.9,2.58-1.34,4-2.14L173.77,102a16,16,0,0,1,1.79-1.07,18.23,18.23,0,0,0,2.14-1.16A47.29,47.29,0,0,1,182,97.52l51.28-27.65a22.52,22.52,0,0,0,2.05-1.25l20.87-11.14c1.16,0,16.94,9.18,20.6,11.06.89.44,1.52.71,2.41,1.24a17.09,17.09,0,0,0,2.58,1.43L338.5,101.8c5,3.12,20.15,11.06,25.5,13.74,6.07,3,11.86,6.68,17.93,9.72l33.71,18.28c1.16.62,1.52.8,2.59,1.43,4,2.4,4.1.35,10.61-3.21l12-6.87c2.14-1.16,10.25-6.33,12.13-6.78-.36-1.16-1.43-1.61-2.5-2.23l-12.22-6.69c-6.15-3.12-12.31-7-18.46-9.9l-12.22-6.69c-4.19-2.14-8.38-4.1-12.3-6.6L333.68,62.74a24.17,24.17,0,0,1-3-1.7l-24.8-13.37c-1.16-.63-1.87-1.07-3-1.7-.62-.36-.89-.44-1.43-.71L268.84,27.6c-2-1.25-11.59-6.6-12.75-6.6-1,0-7.85,4.1-9.37,4.82L176.18,64a33.85,33.85,0,0,0-3.12,1.6L123.65,92.26c-1.16.62-1.69,1.07-3,1.69l-4.46,2.41c-.89.45-.89.62-1.61,1-1,.63-2,.89-3.12,1.61L102,104c-1.25.62-1.87,1.16-3,1.69l-14.36,7.85a9.26,9.26,0,0,0-1,.45c-2,1.16-4.19,2-6.16,3.3a33.85,33.85,0,0,1-3.12,1.6l-13.82,7.67c-1.07.63-.8.09-1.16,1.34Z"/></svg>