<svg id="Layer_1" data-name="Layer 1" xmlns="http://www.w3.org/2000/svg" viewBox="0 0 512 512"><defs><style>.cls-1{fill:#6cffa2;}.cls-2{fill:#231f20;fill-rule:evenodd;}</style></defs><circle class="cls-1" cx="256" cy="256" r="256"/><path class="cls-2" d="M410.1,261.17a1.67,1.67,0,0,0,.12-3.33H397.14a1.67,1.67,0,0,0,0,3.33Zm-3.75,12.61a1.66,1.66,0,0,0,1.66,1.66h13a1.66,1.66,0,0,0,0-3.32H408a1.66,1.66,0,0,0-1.66,1.66m10.89-8.8H402.86a1.68,1.68,0,0,0-1.61,1.73,1.66,1.66,0,0,0,1.61,1.6h14.38a1.67,1.67,0,0,0,0-3.33m-18.7,3.34a1.67,1.67,0,0,0,.12-3.33h-.73a1.67,1.67,0,1,0-.11,3.33h.72Zm29.7,12.6a1.67,1.67,0,0,0-1.66-1.67h-28a1.67,1.67,0,1,0,0,3.33h27.95a1.67,1.67,0,0,0,1.67-1.66"/><path class="cls-2" d="M435.48,266.83l-.75-17.18,5,10.51,5.4-2.17,1.4,16.55-5.71-10.31-5.38,2.6Zm44.24,12.22c-5.12-2-7.63-3.23-9.72-1.27,1.07-2.14.64-2.26-.25-3.84-1.79-3.15-6.52-8.31-8.16-18.16,0,0,2.63-7,2.92-11.49,0,0,1-2.82-3.38-1.44,0,0-5.51,3.35-8.51,4.19-5.43-.64-13.41-4.57-16.35-10.65,0,0,2.45-5.12.32-6.3-1.49-.82-5.88,3.77-5.88,3.77l-14.43,16.82-1.11,2.07a2.61,2.61,0,0,0,.21,2.79c3.82,5.09,18.89,25.18,27.48,35.79-24.56.2-37.83,4-28.42,5.28,7.72,1.07,25.3.75,38.47.71a35,35,0,0,0,4.69,1l22.15.2c2.52-.13,5-.32,7.54-.6a3.65,3.65,0,0,0,3-2.34c2.35-6.31-1.41-12.89-10.6-16.57ZM21,297.86l3.76-16.12h38.5L65.42,280l.89-3.85-1.16-1.52H38.55L28.16,261.05l3.5-15.22,13.16-10.65H92.37l-3.76,16.11H51.89l-2.23,1.8-.81,3.85L50,258.46h26.6L87,272,83.41,287.2,70.34,297.86Zm84.62,0,10.74-46.57H93.53l3.76-16.12h65.37L158.9,251.3H136.07l-10.75,46.57Zm47.9,0L168,235.18h57.31l-3.76,16.12H184l-1.79,7.61h27.76l-3.32,14.33H178.87L177,281.75h38.51l-3.76,16.12Zm92.86-31.79h19.25l3.32-2.69,2.24-9.67-1.88-2.42H249.79Zm-27,31.79,14.51-62.68h48.26l10,13.07-5.28,22.83-13.7,11.11H242.62L239,297.87Zm88.33,0,14.51-62.69H350l9.58,41.2h2.69l9.58-41.2h18.35l-14.5,62.69H347.88l-9.58-41.19h-2.78L326,297.87ZM295.6,213.44l-.56,34.2,9.93-5.19,7.9,17.47-.6-32.74-9.65,5Z"/></svg>