<svg id="Layer_1" data-name="Layer 1" xmlns="http://www.w3.org/2000/svg" xmlns:xlink="http://www.w3.org/1999/xlink" viewBox="0 0 512 512"><defs><style>.cls-1{fill:#fff;}.cls-2{fill:url(#linear-gradient);}.cls-3{fill:url(#linear-gradient-2);}.cls-4{fill:#29abe2;fill-rule:evenodd;}</style><linearGradient id="linear-gradient" x1="315.47" y1="396.85" x2="477" y2="559.71" gradientTransform="translate(0 -240)" gradientUnits="userSpaceOnUse"><stop offset="0.21" stop-color="#f15a24"/><stop offset="0.68" stop-color="#fbb03b"/></linearGradient><linearGradient id="linear-gradient-2" x1="196.5" y1="595.18" x2="34.97" y2="432.31" gradientTransform="translate(0 -240)" gradientUnits="userSpaceOnUse"><stop offset="0.21" stop-color="#ed1e79"/><stop offset="0.89" stop-color="#522785"/></linearGradient></defs><circle class="cls-1" cx="256" cy="256" r="256"/><path class="cls-2" d="M376.87,138.21c-26.2,0-54.9,14.28-85.16,42.45a372.07,372.07,0,0,0-36,39.05s14.68,16.9,30.79,35.11c8.78-11,21.23-25.94,35.78-39.44,26.86-25.16,44.41-30.27,54.5-30.27,37.74,0,68.4,31.71,68.4,70.89,0,38.78-30.66,70.49-68.4,70.89a34.17,34.17,0,0,1-6.55-.79c11,5.11,22.93,8.78,34.07,8.78,69.18,0,82.81-47.83,83.6-51.23A125.64,125.64,0,0,0,491,256.26C490.87,191.14,439.77,138.21,376.87,138.21Z"/><path class="cls-3" d="M135.13,373.79c26.2,0,54.9-14.28,85.16-42.45a372.07,372.07,0,0,0,36-39s-14.68-16.9-30.79-35.11c-8.78,11-21.23,25.94-35.78,39.44-26.86,24.89-44.54,30.27-54.5,30.27-37.74,0-68.4-31.71-68.4-70.89,0-38.78,30.66-70.49,68.4-70.89a34.17,34.17,0,0,1,6.55.79c-11-5.11-22.93-8.78-34.07-8.78-69.18-.13-82.81,47.7-83.6,51.23A125.64,125.64,0,0,0,21,255.74C21,320.86,72.1,373.79,135.13,373.79Z"/><path class="cls-4" d="M187.8,216.43c-7.6-7.34-44.55-37.34-79.93-38.39-63.15-1.57-81.63,44.29-83.33,50.18,12.18-51.36,57.26-89.75,110.72-90,43.63,0,87.79,42.84,120.41,81.5l.13-.14s14.68,16.91,30.8,35.12c0,0,18.34,21.62,37.73,40.62,7.6,7.34,44.42,36.95,79.8,38,64.86,1.83,82.81-46.65,83.73-50.32-11.93,51.76-57.13,90.28-110.85,90.54-43.64,0-87.79-42.84-120.55-81.5,0,.13-.13.13-.13.26s-14.68-16.9-30.79-35.11C225.67,257.18,207.32,235.43,187.8,216.43ZM24.54,228.75a.49.49,0,0,1,.13-.4A.49.49,0,0,0,24.54,228.75Z"/></svg>