<svg id="Layer_1" data-name="Layer 1" xmlns="http://www.w3.org/2000/svg" xmlns:xlink="http://www.w3.org/1999/xlink" viewBox="0 0 512 512"><defs><style>.cls-1{fill:none;}.cls-2{fill:#fff;}.cls-3{clip-path:url(#clip-path);}.cls-4{fill:#17b5cb;}</style><clipPath id="clip-path"><rect class="cls-1" x="71" y="105.6" width="370" height="300.79"/></clipPath></defs><circle class="cls-2" cx="256" cy="256" r="256"/><g class="cls-3"><path class="cls-4" d="M401.34,105.6H440.2l-157.58,180a12.5,12.5,0,0,0-.27,16.23l90.77,105.68H332.66l-83.85-98-4.26-5.32c-4-4.53-3.72-11.71.27-16.24Z"/><path class="cls-4" d="M313.76,301.78a12.5,12.5,0,0,1-2.66-10.91,16.94,16.94,0,0,1,3.73-5.86l10.38-11.44L441,407.46H404.27S336.39,328.14,313.76,301.78Z"/><path class="cls-4" d="M111.46,407.46H71L195,264a12.14,12.14,0,0,0,0-16L72.06,105.6h38.87L234.71,249.08c3.19,4.26,3.72,10.38.26,14.37C202.5,301,111.46,407.46,111.46,407.46Z"/><path class="cls-4" d="M179.07,105.6H141.81L256.53,238.43s.27-.26,13.05-15.44c3.46-4,4.25-9.05.26-13C245.88,185.46,179.07,105.6,179.07,105.6Z"/><path class="cls-4" d="M290.87,198.24l79.59-92.64h-37.8l-41.52,48.45-12,14.11a12.51,12.51,0,0,0-.27,16.24C281.82,187.86,290.87,198.24,290.87,198.24Z"/><path class="cls-4" d="M221.66,314.83l-79.59,92.63H179.6L221.13,359l12-14.1a12.5,12.5,0,0,0,.26-16.24Z"/></g></svg>