<svg id="Layer_1" data-name="Layer 1" xmlns="http://www.w3.org/2000/svg" xmlns:xlink="http://www.w3.org/1999/xlink" viewBox="0 0 512 512"><defs><style>.cls-1{fill:#fff;}.cls-2{fill:url(#linear-gradient);}.cls-3{fill:url(#linear-gradient-2);}</style><linearGradient id="linear-gradient" x1="94.49" y1="928.01" x2="281.34" y2="604.34" gradientTransform="translate(0 -470)" gradientUnits="userSpaceOnUse"><stop offset="0" stop-color="#174e5b"/><stop offset="0.07" stop-color="#195a6c"/><stop offset="0.21" stop-color="#1e779a"/><stop offset="0.4" stop-color="#27a7e3"/><stop offset="0.47" stop-color="#2abaff"/><stop offset="0.7" stop-color="#1ddaf0"/><stop offset="1" stop-color="#0effe0"/></linearGradient><linearGradient id="linear-gradient-2" x1="415.88" y1="523.84" x2="229.01" y2="847.49" xlink:href="#linear-gradient"/></defs><circle class="cls-1" cx="256" cy="256" r="256"/><path class="cls-2" d="M322.74,491.77c-1.25-1.24-2.5-2.49-3.74-2.49-28.69-6.24-57.39-16.22-82.34-31.19-52.39-31.19-87.32-77.34-88.57-131,0-20,3.75-39.92,12.48-58.64,5-12.47,34.93-54.88,38.67-62.37,20-31.19,13.72-28.69-15-67.36L144.35,80.11l-26.2-39.92c-15,10-29.94,22.45-43.66,34.93-27.44,27.44-48.65,62.37-61.12,99.79a262,262,0,0,0-11.23,116c5,38.67,20,76.1,42.41,108.53s52.4,59.88,86.08,78.59C42.06,413.18.89,314.63,34.57,216.08a249,249,0,0,1,39.92-73.6l28.69,42.41c1.25,2.5,2.5,5,2.5,8.74a23.13,23.13,0,0,1-2.5,8.73c-13.72,17.46-25,36.18-32.43,57.38C33.33,368.27,134.37,480.55,240.41,499.26c20,3.74,57.38,7.48,77.34,2.49a4.37,4.37,0,0,0,2.5-1.24c1.24-1.25,1.24-1.25,1.24-2.5v-3.74C324,494.27,324,493,322.74,491.77Z"/><path class="cls-3" d="M188,20.23c1.25,1.24,2.5,2.49,3.74,2.49,28.7,6.24,57.39,16.22,82.34,31.19,52.39,31.19,87.32,77.34,88.57,131,0,20-3.74,39.92-12.48,58.64-5,12.47-34.92,54.88-38.67,62.37-20,31.19-13.72,28.69,15,67.36l39.92,58.63,27.45,39.92c15-10,29.94-22.45,43.66-34.93,27.44-27.44,48.65-62.37,61.12-99.79a262,262,0,0,0,11.23-116c-5-38.67-20-76.1-42.41-108.53S415.05,52.66,381.37,34c88.57,64.87,129.74,163.42,94.81,262a248.51,248.51,0,0,1-39.92,73.6l-28.69-42.41c-1.25-2.5-2.5-5-2.5-8.74a23.13,23.13,0,0,1,2.5-8.73c13.72-17.46,24.95-36.18,32.43-57.38C477.43,143.73,376.38,31.45,270.35,12.74,250.39,9,213,5.26,193,10.25a4.33,4.33,0,0,0-2.49,1.24c-2.5,0-3.74,1.25-3.74,2.5v3.74A3.89,3.89,0,0,0,188,20.23Z"/></svg>