<svg id="Layer_1" data-name="Layer 1" xmlns="http://www.w3.org/2000/svg" viewBox="0 0 512 512"><defs><style>.cls-1{fill:#fff;}</style></defs><circle class="cls-1" cx="256" cy="256" r="256"/><g id="Layer_2" data-name="Layer 2"><g id="Layer_1-2" data-name="Layer 1-2"><path d="M342.36,114.73a21.34,21.34,0,1,0-21-21.29A21.21,21.21,0,0,0,342.36,114.73Zm6.2,55.46a18,18,0,0,0,17.81-18.08h0a17.81,17.81,0,1,0-17.81,18.08Zm48.88,7.07a18,18,0,1,0-17.76-18A17.91,17.91,0,0,0,397.44,177.26Zm-5.87,47.44a15.4,15.4,0,1,0-15.18-15.4A15.29,15.29,0,0,0,391.57,224.7Zm39.14,15.39a15.51,15.51,0,1,0-15.3-15.51h0A15.42,15.42,0,0,0,430.71,240.09Zm-88.32-21.8A15.66,15.66,0,0,0,358,202.54h0v0a15.57,15.57,0,1,0-15.57,15.78ZM328.28,256a13.21,13.21,0,0,0,.05-26.42h-.05a13.21,13.21,0,0,0,0,26.42Zm49,6.67a13,13,0,0,0,12.93-13.11h0v0a12.94,12.94,0,1,0-13.06,13.15h.13Zm39,15.33a13,13,0,1,0-.06,0ZM397,306.68a11.18,11.18,0,1,0-11-11.17A11.11,11.11,0,0,0,397,306.68ZM357.78,291.6a11.45,11.45,0,1,0-11.28-11.45A11.39,11.39,0,0,0,357.78,291.6Zm-48.9-7a11.34,11.34,0,0,0,0-22.68h0a11.34,11.34,0,0,0,0,22.68Zm27.19,26.91a9.84,9.84,0,0,0,.07-19.67h-.07a9.84,9.84,0,0,0-.11,19.67Zm39.19,15.34a9.94,9.94,0,1,0-9.94-9.94A9.91,9.91,0,0,0,375.26,326.85Zm-22.07,11.51a7.86,7.86,0,1,0-7.76-7.86A7.81,7.81,0,0,0,353.19,338.36Zm-20.92,6.17a7,7,0,0,0,7-7.09h0v0a7,7,0,1,0-14,0h0v0a7,7,0,0,0,6.87,7.11ZM314,324.07a8.45,8.45,0,1,0-8.35-8.45A8.41,8.41,0,0,0,314,324.07Zm-26.88-19.38a9.84,9.84,0,1,0-9.73-9.84A9.78,9.78,0,0,0,287.07,304.69Zm79.71,123.23a21.24,21.24,0,1,0-20.92-21.24,21.08,21.08,0,0,0,20.92,21.24ZM313.64,401a17.7,17.7,0,1,0-17.44-17.69A17.57,17.57,0,0,0,313.64,401ZM283.28,440a17.87,17.87,0,1,0-17.59-17.86A17.7,17.7,0,0,0,283.28,440Zm-9.14-71.68a15.35,15.35,0,0,0,15.25-15.46h0a15.36,15.36,0,0,0-15.24-15.47h0A15.35,15.35,0,0,0,258.9,352.8h0a15.39,15.39,0,0,0,15.24,15.46ZM243.86,407.7a15.15,15.15,0,1,0-.09,0Zm-32.64,26.76a15.36,15.36,0,1,0-15.14-15.35,15.25,15.25,0,0,0,15.14,15.35Zm-27.17-34.83a13.11,13.11,0,1,0-12.9-12.9A13.06,13.06,0,0,0,184.05,399.63Zm32.7-26.88a13.11,13.11,0,1,0-12.93-12.93,13,13,0,0,0,12.93,12.93Zm30.52-39.42a13,13,0,0,0,12.93-13.12h0v0a12.94,12.94,0,1,0-25.87,0h0v0A13,13,0,0,0,247.27,333.33Zm-46.68,5.43a11.39,11.39,0,1,0-11.23-11.39A11.3,11.3,0,0,0,200.59,338.76Zm-32.53,26.77a11.19,11.19,0,0,0,11.13-11.25h0v0A11.18,11.18,0,0,0,168.12,343h-.06a11.19,11.19,0,0,0-11.13,11.25h0v0a11.2,11.2,0,0,0,11.13,11.28Zm-7.48-31.38a9.73,9.73,0,1,0-9.63-9.73A9.69,9.69,0,0,0,160.58,334.15Zm-.28-27.53a8.31,8.31,0,0,0,8.24-8.39h0a8.24,8.24,0,1,0-8.24,8.39Zm4.53-22.9a7.12,7.12,0,1,0-7-7.11A7.05,7.05,0,0,0,164.83,283.72Zm28-3.83a8.45,8.45,0,1,0-8.34-8.45A8.41,8.41,0,0,0,192.88,279.89Zm30.79-12a9.84,9.84,0,0,0,.08-19.68h-.08a9.84,9.84,0,0,0,0,19.68h0ZM231,299.12a11,11,0,1,0-.05,0Zm-37.72,8.32a9.79,9.79,0,1,0-9.62-9.84h0v0a9.65,9.65,0,0,0,9.51,9.79h.11ZM86.86,292.92A21.13,21.13,0,1,0,66,271.8a21,21,0,0,0,20.86,21.12Zm47.34-37.73A18.14,18.14,0,1,0,116.34,237v0a18,18,0,0,0,17.86,18.14Zm-18.47-46.52A18,18,0,1,0,98,190.6h0v0a17.86,17.86,0,0,0,17.67,18Zm45.64-22a15.46,15.46,0,1,0-15.25-15.46,15.36,15.36,0,0,0,15.25,15.46ZM180,233a15.51,15.51,0,1,0-15.29-15.51A15.4,15.4,0,0,0,180,233Zm41.54-9.64a13.12,13.12,0,0,0,13-13.21h0a13,13,0,1,0-26-.4v.4h0a13.06,13.06,0,0,0,12.9,13.21Zm35.88.12a11.34,11.34,0,1,0-11.34-11.34,11.29,11.29,0,0,0,11.34,11.34Zm29.64,6.82a9.58,9.58,0,1,0-9.47-9.57A9.54,9.54,0,0,0,287.08,230.34Zm3.86-34.93a8.35,8.35,0,1,0-8.24-8.35A8.3,8.3,0,0,0,290.94,195.41ZM268.14,184a9.5,9.5,0,1,0-.05,0ZM238.84,177a11.28,11.28,0,1,0-11.13-11.28A11.21,11.21,0,0,0,238.84,177h0Zm-35.81.05A13.21,13.21,0,1,0,190,163.88,13.12,13.12,0,0,0,203,177.09Zm-48.24-33a15,15,0,1,0-14.77-15A14.85,14.85,0,0,0,154.79,144.05ZM196.31,135a13.22,13.22,0,1,0-13.05-13.22A13.13,13.13,0,0,0,196.31,135Zm35.86.16a11.39,11.39,0,1,0-11.24-11.41h0v0A11.34,11.34,0,0,0,232.17,135.14Zm29.43,6.78a9.58,9.58,0,1,0-9.58-9.57A9.5,9.5,0,0,0,261.6,141.92Zm22.61,11.74a8.56,8.56,0,1,0-8.45-8.56A8.5,8.5,0,0,0,284.21,153.66Zm16.59,13.47a7,7,0,0,0,6.94-7h0a7,7,0,0,0-6.93-7.06h0a7,7,0,0,0-6.95,7h0v0a7,7,0,0,0,6.84,7h.11Z"/></g></g></svg>