<svg id="Layer_1" data-name="Layer 1" xmlns="http://www.w3.org/2000/svg" viewBox="0 0 512 512"><defs><style>.cls-1{fill:#fff;}.cls-2,.cls-4{fill:#ff564f;}.cls-2{isolation:isolate;opacity:0.2;}.cls-3{fill:#f08179;}</style></defs><circle class="cls-1" cx="256" cy="256" r="256"/><path class="cls-2" d="M121.81,379.27,142.42,441,283.89,256,142.42,71l-21.61,60.39,94,124.58Z"/><path class="cls-3" d="M423.37,441H356.23L214.73,256,356.23,71h67.14L283.86,256Z"/><path class="cls-4" d="M88.58,71h53.81V441H88.58Z"/><path id="_0" data-name="0" class="cls-4" d="M423.42,441H356.29L214.78,256,356.29,71h67.13L283.91,256Z"/><path id="_0-2" data-name="0" class="cls-4" d="M423.42,441H356.29L214.78,256,356.29,71h67.13L283.91,256Z"/><path id="_0-3" data-name="0" class="cls-4" d="M423.42,441H356.29L214.78,256,356.29,71h67.13L283.91,256Z"/><path id="_0-4" data-name="0" class="cls-4" d="M423.42,441H356.29L214.78,256,356.29,71h67.13L283.91,256Z"/></svg>