<svg id="Layer_1" data-name="Layer 1" xmlns="http://www.w3.org/2000/svg" xmlns:xlink="http://www.w3.org/1999/xlink" viewBox="0 0 512 512"><defs><style>.cls-1{fill:#fff;}.cls-2{fill-rule:evenodd;fill:url(#linear-gradient);}</style><linearGradient id="linear-gradient" x1="177.57" y1="336.83" x2="361.49" y2="152.91" gradientTransform="matrix(1, 0, 0, -1, 0, 514)" gradientUnits="userSpaceOnUse"><stop offset="0" stop-color="#7eb5ff"/><stop offset="1" stop-color="#1a38f8"/></linearGradient></defs><circle class="cls-1" cx="256" cy="256" r="256"/><path class="cls-2" d="M152.28,411.71,374.11,189.87s18.66-19.93,14.22-45S361,100.29,361,100.29L138.58,322.73a64.27,64.27,0,0,0-15.59,41C122.87,388.55,152.28,411.71,152.28,411.71ZM231.57,491,453.41,269.17s18.65-19.93,14.22-45-27.32-44.58-27.32-44.58L217.87,402a64.28,64.28,0,0,0-15.59,41C202.16,467.84,231.57,491,231.57,491Zm63.25-380.42L73,332.41s-29.41-23.16-29.29-48a64.22,64.22,0,0,1,15.6-41L281.72,21S304.6,40.52,309,65.59,294.82,110.58,294.82,110.58Z"/></svg>