<svg id="Layer_1" data-name="Layer 1" xmlns="http://www.w3.org/2000/svg" xmlns:xlink="http://www.w3.org/1999/xlink" viewBox="0 0 512 512"><defs><style>.cls-1{fill:#231f20;}.cls-2{fill:url(#linear-gradient);}.cls-3{fill:url(#linear-gradient-2);}.cls-4{fill:url(#linear-gradient-3);}.cls-5{fill:url(#linear-gradient-4);}</style><linearGradient id="linear-gradient" x1="459.65" y1="559.1" x2="255.75" y2="781.51" gradientTransform="translate(0 -320.98)" gradientUnits="userSpaceOnUse"><stop offset="0.21" stop-color="#02c86a"/><stop offset="0.34" stop-color="#14ea85"/></linearGradient><linearGradient id="linear-gradient-2" x1="392.11" y1="496.98" x2="188.2" y2="719.4" gradientTransform="translate(0 -320.98)" gradientUnits="userSpaceOnUse"><stop offset="0.32" stop-color="#02c86a"/><stop offset="0.51" stop-color="#11ed85"/></linearGradient><linearGradient id="linear-gradient-3" x1="324.13" y1="434.89" x2="120.33" y2="657.18" gradientTransform="translate(0 -320.98)" gradientUnits="userSpaceOnUse"><stop offset="0.5" stop-color="#1fd17d"/><stop offset="0.64" stop-color="#2ce28c"/></linearGradient><linearGradient id="linear-gradient-4" x1="256.46" y1="372.66" x2="52.56" y2="595.06" gradientTransform="translate(0 -320.98)" gradientUnits="userSpaceOnUse"><stop offset="0.65" stop-color="#1bc675"/><stop offset="0.8" stop-color="#0fd879"/></linearGradient></defs><circle class="cls-1" cx="256" cy="256" r="256"/><path class="cls-2" d="M491,266.87,459.48,238l-41.09,44.78a24,24,0,0,1-19.56,7.61l-33.7-3.26a15.33,15.33,0,0,0-13,5L224.26,431.65l31.52,28.7L402.09,300.78a15.33,15.33,0,0,1,15.21-4.56l29.57,7.17a16,16,0,0,0,15.22-4.56Z"/><path class="cls-3" d="M423.39,204.7l-31.52-28.92-73,79.79a23.94,23.94,0,0,1-19.57,7.6l-33.69-3.26a15.4,15.4,0,0,0-13,5L156.65,369.48l31.52,28.91L302.3,273.83a15.35,15.35,0,0,1,15.22-4.57l29.57,7.17a15.94,15.94,0,0,0,15.21-4.56Z"/><path class="cls-4" d="M355.57,142.74,324,113.83,218.83,228.39A24,24,0,0,1,199.26,236l-33.69-3.26a15.34,15.34,0,0,0-13,5L88.83,307.3l31.52,28.92,82-89.57a15.35,15.35,0,0,1,15.22-4.56l29.57,7.17a15.94,15.94,0,0,0,15.21-4.56Z"/><path class="cls-5" d="M288,80.57,256.43,51.65,119,201.43A23.9,23.9,0,0,1,99.48,209l-33.7-3.26a15.38,15.38,0,0,0-13,5L21,245.13,52.52,274l50-54.56a15.35,15.35,0,0,1,15.22-4.57l29.56,7.18a16,16,0,0,0,15.22-4.57Z"/></svg>