<svg id="Layer_1" data-name="Layer 1" xmlns="http://www.w3.org/2000/svg" xmlns:xlink="http://www.w3.org/1999/xlink" viewBox="0 0 512 512"><defs><style>.cls-1{fill:#fff;}.cls-2{fill:url(#linear-gradient);}.cls-3{fill:url(#linear-gradient-2);}.cls-4{fill:url(#linear-gradient-3);}.cls-5{fill:url(#linear-gradient-4);}</style><linearGradient id="linear-gradient" x1="70.44" y1="312.08" x2="566.45" y2="260.56" gradientTransform="translate(0 -53.6)" gradientUnits="userSpaceOnUse"><stop offset="0" stop-color="#4400e2"/><stop offset="0.04" stop-color="#7013c5"/><stop offset="0.09" stop-color="#9a25aa"/><stop offset="0.13" stop-color="#bc3494"/><stop offset="0.18" stop-color="#d73f82"/><stop offset="0.23" stop-color="#ea4876"/><stop offset="0.28" stop-color="#f54c6e"/><stop offset="0.33" stop-color="#f94e6c"/><stop offset="1" stop-color="#ffd402"/></linearGradient><linearGradient id="linear-gradient-2" x1="73.89" y1="345.31" x2="569.91" y2="293.79" xlink:href="#linear-gradient"/><linearGradient id="linear-gradient-3" x1="71.59" y1="323.16" x2="567.6" y2="271.63" xlink:href="#linear-gradient"/><linearGradient id="linear-gradient-4" x1="72.72" y1="334.02" x2="568.73" y2="282.5" xlink:href="#linear-gradient"/></defs><circle class="cls-1" cx="256" cy="256" r="256"/><path class="cls-2" d="M94.33,115.74A23.31,23.31,0,0,0,71,139.07V372.93a23.33,23.33,0,1,0,46.65,0V139.07A23.39,23.39,0,0,0,94.33,115.74Z"/><path class="cls-3" d="M417.67,115.74a23.35,23.35,0,0,0-23.32,23.33V372.93a23.33,23.33,0,1,0,46.65,0V139.07A23.35,23.35,0,0,0,417.67,115.74Z"/><path class="cls-4" d="M202.09,164.36a23.32,23.32,0,0,0-23.33,23.33V324.31a23.33,23.33,0,1,0,46.65,0V187.69A23.35,23.35,0,0,0,202.09,164.36Z"/><path class="cls-5" d="M309.91,203.63A23.34,23.34,0,0,0,286.59,227v57.67a23.33,23.33,0,0,0,46.65,0V227A23.35,23.35,0,0,0,309.91,203.63Z"/></svg>