<svg id="Layer_1" data-name="Layer 1" xmlns="http://www.w3.org/2000/svg" viewBox="0 0 512 512"><defs><style>.cls-1{fill:#fff;}</style></defs><circle class="cls-1" cx="256" cy="256" r="256"/><path d="M364.48,94.58,289.36,206.06c-5.19,7.59,4.8,16.78,12,10.38l73.92-64.32a2.88,2.88,0,0,1,4.79,2.39v201a3,3,0,0,1-5.19,2L151.12,89.78A37,37,0,0,0,122,76.2h-8c-20.78,0-38,17.18-38,38.36V397.44a38.37,38.37,0,0,0,71.12,20l75.12-111.48c5.19-7.59-4.8-16.78-12-10.38l-73.92,63.93a2.89,2.89,0,0,1-4.79-2.4V156.51a3,3,0,0,1,5.19-2L360.48,422.22a37.56,37.56,0,0,0,29.17,13.58h8A38.37,38.37,0,0,0,436,397.44V114.56a38.63,38.63,0,0,0-71.52-20Z"/></svg>