<svg id="Layer_1" data-name="Layer 1" xmlns="http://www.w3.org/2000/svg" viewBox="0 0 512 512"><defs><style>.cls-1{fill:#fff;}.cls-2{fill:#1e65f3;}</style></defs><circle class="cls-1" cx="256" cy="256" r="256"/><path class="cls-2" d="M356.55,133.34l-31.7,15a1,1,0,0,0-.39.33,1,1,0,0,0-.26.46,1.39,1.39,0,0,0-.07.53,1.73,1.73,0,0,0,.13.52l48.17,101.52c17.92,37.8,13.13,66.42-14.11,79.41-22.05,10.44-41,3.15-55.84-22.31l-57.1-120.29c-23.1-48.76-54.6-61.69-92-43.91C129.09,156.17,115,176.78,115.25,203a1.34,1.34,0,0,1-.27.86,1.23,1.23,0,0,1-.78.46,1.53,1.53,0,0,1-.92-.07,1.25,1.25,0,0,1-.66-.66L100.15,177.3a1,1,0,0,0-.33-.39,1,1,0,0,0-.46-.26.55.55,0,0,0-.46-.13,1.47,1.47,0,0,0-.52.13l-31.63,15a1,1,0,0,0-.66.78,1.18,1.18,0,0,0,.07,1L153.64,378a1.41,1.41,0,0,0,.78.72,1.18,1.18,0,0,0,1.05-.07l31.7-15a1.08,1.08,0,0,0,.4-.33,1.09,1.09,0,0,0,.26-.46,1.6,1.6,0,0,0,.06-.53,1.47,1.47,0,0,0-.13-.52l-46.85-98.7c-19.1-40.3-15.49-69.43,13.71-83.28,22.44-10.63,39.9-3.48,55.59,23.82a.26.26,0,0,1,.06.13L266.78,322.8c21.78,45.94,55.65,61.69,91.35,44.75,27.63-13.12,39.11-32.81,38.39-58.8a1.3,1.3,0,0,1,.26-.85,1.26,1.26,0,0,1,.79-.46,1.53,1.53,0,0,1,.92.07,1.25,1.25,0,0,1,.65.65l12.6,26.52a1,1,0,0,0,.33.39,1,1,0,0,0,.46.26,1.39,1.39,0,0,0,.53.07,1.73,1.73,0,0,0,.52-.13l31.7-15a1,1,0,0,0,.39-.33,1,1,0,0,0,.26-.46,1.36,1.36,0,0,0,.07-.52,1.71,1.71,0,0,0-.13-.53L358.32,134a1.41,1.41,0,0,0-.78-.72A1.25,1.25,0,0,0,356.55,133.34Z"/></svg>