<svg id="Layer_1" data-name="Layer 1" xmlns="http://www.w3.org/2000/svg" viewBox="0 0 512 512"><defs><style>.cls-1{fill:#fff;}.cls-2{fill:#141414;}</style></defs><circle class="cls-1" cx="256" cy="256" r="256"/><path class="cls-2" d="M116.24,248.88A20.2,20.2,0,1,1,96,228.69h0a20.2,20.2,0,0,1,20.2,20.19m321,0A20.2,20.2,0,1,1,417,228.69h0a20.2,20.2,0,0,1,20.15,20.19m-160.45,79.7a20.21,20.21,0,1,1-20.21-20.19h0a20.2,20.2,0,0,1,20.19,20.19M196,289.24A20.21,20.21,0,1,1,175.74,269,20.21,20.21,0,0,1,196,289.24h0m160.5,0a20.21,20.21,0,1,1-20.25-20.16h.09a20.21,20.21,0,0,1,20.16,20.16M109.69,310a13.65,13.65,0,1,1-13.64-13.66A13.65,13.65,0,0,1,109.69,310h0m321,0a13.65,13.65,0,1,1-13.64-13.66A13.65,13.65,0,0,1,430.69,310M270.19,390.81a13.65,13.65,0,1,1-13.65-13.64h0a13.67,13.67,0,0,1,13.63,13.64M189.4,350.4a13.65,13.65,0,1,1-13.65-13.65h0a13.63,13.63,0,0,1,13.64,13.64h0m160.51,0a13.65,13.65,0,1,1-13.68-13.62h.06A13.65,13.65,0,0,1,349.9,350.4m-246.76,7.66A7.14,7.14,0,1,1,96,350.93a7.14,7.14,0,0,1,7.13,7.13m321,0a7.14,7.14,0,1,1-7.14-7.13,7.14,7.14,0,0,1,7.14,7.13m-160.51,80.8a7.14,7.14,0,1,1-7.14-7.13,7.13,7.13,0,0,1,7.14,7.13h0m-80.79-40.39a7.14,7.14,0,1,1-7.14-7.14,7.14,7.14,0,0,1,7.14,7.14m160.5,0a7.14,7.14,0,1,1-7.13-7.14,7.13,7.13,0,0,1,7.13,7.14M283.28,93.3A27.3,27.3,0,1,1,256,66h0a27.3,27.3,0,0,1,27.27,27.3m0,80.75a27.3,27.3,0,1,1-27.3-27.3h0a27.3,27.3,0,0,1,27.29,27.3m0,79.71a27.3,27.3,0,1,1-27.3-27.3h0a27.3,27.3,0,0,1,27.29,27.31v0M443.8,174.05a27.3,27.3,0,1,1-27.3-27.3h0a27.3,27.3,0,0,1,27.3,27.3m-321,0a27.3,27.3,0,1,1-27.34-27.26h0a27.3,27.3,0,0,1,27.3,27.26m80.79-40.4a27.3,27.3,0,1,1-27.34-27.25,27.3,27.3,0,0,1,27.34,27.25m0,79.71a27.3,27.3,0,1,1-27.3-27.3,27.29,27.29,0,0,1,27.3,27.3h0M364.1,133.69a27.3,27.3,0,1,1-27.3-27.29h0a27.3,27.3,0,0,1,27.3,27.29m0,79.71a27.3,27.3,0,1,1-27.3-27.3h0a27.3,27.3,0,0,1,27.3,27.3"/></svg>