<svg id="Layer_1" data-name="Layer 1" xmlns="http://www.w3.org/2000/svg" xmlns:xlink="http://www.w3.org/1999/xlink" viewBox="0 0 512 512"><defs><style>.cls-1{fill:#fff;}.cls-2{fill:url(#linear-gradient);}</style><linearGradient id="linear-gradient" x1="204.4" y1="-30.32" x2="206.19" y2="-32.11" gradientTransform="translate(-36695 5857.6) scale(180 179.51)" gradientUnits="userSpaceOnUse"><stop offset="0" stop-color="#00aee9"/><stop offset="1" stop-color="#69fabd"/></linearGradient></defs><circle class="cls-1" cx="256" cy="256" r="256"/><path id="Shape" class="cls-2" d="M361.18,71.51a79.76,79.76,0,0,0-79.83,79.57V239.3c-8.23.56-16.63.91-25.35.91s-17.08.35-25.35.84v-90a79.84,79.84,0,0,0-159.65,0V361.94a79.84,79.84,0,0,0,159.65,0V273.71c8.23-.55,16.63-.9,25.35-.9s17.08-.35,25.35-.85v90a79.84,79.84,0,0,0,159.65,0V151.08A79.76,79.76,0,0,0,361.18,71.51Zm-210.36,32.6a47.09,47.09,0,0,1,47.11,47V244.5a268.93,268.93,0,0,0-67.83,19.18,123.13,123.13,0,0,0-26.31,15.71V151.08A47.08,47.08,0,0,1,150.82,104.11Zm47.11,257.83a47.12,47.12,0,0,1-94.23,0v-21.2c0-18.68,14.8-36.38,39.61-47.4a232.76,232.76,0,0,1,54.62-16v84.53Zm163.25,47a47.1,47.1,0,0,1-47.11-47V268.51a268.1,268.1,0,0,0,67.83-19.18,123.09,123.09,0,0,0,26.31-15.7V361.94a47.09,47.09,0,0,1-47,47Zm7.51-189.4a232.76,232.76,0,0,1-54.62,16v-84.4a47.12,47.12,0,1,1,94.23,0v21.19C408.3,190.83,393.5,208.53,368.69,219.51Z"/></svg>