<svg id="Layer_1" data-name="Layer 1" xmlns="http://www.w3.org/2000/svg" viewBox="0 0 512 512"><defs><style>.cls-1{fill:#fff;}</style></defs><circle class="cls-1" cx="256" cy="256" r="256"/><path d="M134.85,44.47,256.78,187.33l81.84-48.14S239.88,7.14,213.55,16.47C188.79,25.9,134.85,44.47,134.85,44.47Z"/><path d="M341.66,139.19A293.77,293.77,0,0,0,369.47,63s92.65,37.24,57.08,130.48Z"/><path d="M426.55,193.61l7.76,97.86,35.47-4.62s9.23-3.14,7.76-20.14c-1.57-18.67-4.62-57.47-4.62-57.47s1.57-9.34-20-12.38C426.55,192,426.55,193.61,426.55,193.61Z"/><path d="M434.21,291.47l-71,57.48,32.42,63.66s7.76,24.86,30.85-3.14c21.62-28,30.85-32.62,29.28-49.72C454.35,342.66,449.64,302.28,434.21,291.47Z"/><path d="M361.7,348.85l-97.26-43.53L179.55,477.75S173.36,490.13,195,491.7c21.61,3.15,57.08,10.91,75.65-7.76C289.2,466.94,361.7,348.85,361.7,348.85Z"/><path d="M264.44,303.85l-9.24-115L45.25,203s-12.38,1.57-10.81,24.86C36,258.85,39.06,293,39.06,293S37.48,307,65.29,308.57,261.39,310,264.44,303.85Z"/></svg>