<svg id="Layer_1" data-name="Layer 1" xmlns="http://www.w3.org/2000/svg" xmlns:xlink="http://www.w3.org/1999/xlink" viewBox="0 0 512 512"><defs><style>.cls-1{fill:#231f20;}.cls-2{fill:url(#linear-gradient);}.cls-3{fill:url(#linear-gradient-2);}.cls-4{fill:url(#linear-gradient-3);}.cls-5{fill:url(#linear-gradient-4);}</style><linearGradient id="linear-gradient" x1="476.21" y1="346.06" x2="35.42" y2="169.79" gradientTransform="matrix(1, 0, 0, -1, 0, 514)" gradientUnits="userSpaceOnUse"><stop offset="0" stop-color="#c200fb"/><stop offset="0.49" stop-color="#3772ff"/><stop offset="0.49" stop-color="#3773fe"/><stop offset="1" stop-color="#5ac4be"/></linearGradient><linearGradient id="linear-gradient-2" x1="467.7" y1="367.34" x2="26.91" y2="191.07" xlink:href="#linear-gradient"/><linearGradient id="linear-gradient-3" x1="511.77" y1="257.12" x2="70.98" y2="80.85" xlink:href="#linear-gradient"/><linearGradient id="linear-gradient-4" x1="464.75" y1="374.63" x2="23.96" y2="198.36" xlink:href="#linear-gradient"/></defs><circle class="cls-1" cx="256" cy="256" r="256"/><path class="cls-2" d="M442.16,196.14V363.52L256,471,69.73,363.52v-215L256,40.92l143.08,82.65,21.59-12.46L256,16,48.13,136V376L256,496,463.87,376V183.68Z"/><path class="cls-3" d="M203.88,363.62H172.73V259.17H276.56a37.39,37.39,0,0,0,37-37.28,35.58,35.58,0,0,0-10.9-26.06,36,36,0,0,0-26.06-10.9H172.73V153.16H276.66a69.16,69.16,0,0,1,68.74,68.73,66.81,66.81,0,0,1-12.15,38.94,67.72,67.72,0,0,1-29.9,24.5,119.92,119.92,0,0,1-37.18,5.61H203.88Z"/><path class="cls-4" d="M344.67,361H308.33l-28-48.9a118.65,118.65,0,0,0,32.49-6.64Z"/><path class="cls-5" d="M420.46,161.36,442,173.3l21.49-11.94V136.13L442,123.67l-21.5,12.46Z"/></svg>