<svg id="Layer_1" data-name="Layer 1" xmlns="http://www.w3.org/2000/svg" xmlns:xlink="http://www.w3.org/1999/xlink" viewBox="0 0 512 512"><defs><style>.cls-1{fill:none;}.cls-2{fill:#fff;}.cls-3{clip-path:url(#clip-path);}.cls-4{fill:#0089db;fill-rule:evenodd;}</style><clipPath id="clip-path"><rect class="cls-1" width="512" height="512"/></clipPath></defs><circle class="cls-2" cx="256" cy="256" r="256"/><g class="cls-3"><path class="cls-4" d="M460,101.6C421.2,52,364.4,20.4,301.6,20.4,180,20.4,90.8,133.6,90.8,256c0,85.2,56.8,149.2,119.6,149.2a87.34,87.34,0,0,0,17.6-1.6c-42.4-30.8-69.2-86.8-69.2-147.6,0-96.8,65.6-172.4,142.8-172.4,84.4,0,142.8,83.6,142.8,172.4-.4,65.6-23.6,130.8-64.8,178.8-36,42-82.4,68.4-133.6,76.8,0,0,4.4.4,10,.4,141.2,0,256-114.8,256-256A252.87,252.87,0,0,0,460,101.6ZM421.2,256c0-85.2-56.8-149.2-119.6-149.2a87.34,87.34,0,0,0-17.6,1.6c42.4,30.8,69.2,86.8,69.2,147.6,0,96.8-65.6,172.4-142.8,172.4C126,428.4,67.6,344.8,67.6,256c.4-65.6,23.6-130.8,64.8-178.8,36-42,82.4-68.4,133.6-76.8,0,0-4.4-.4-10-.4C114.8,0,0,114.8,0,256A252.87,252.87,0,0,0,52,410.4c38.8,49.6,95.6,80.8,158.4,80.8C332,491.6,421.2,378.4,421.2,256Z"/></g></svg>