<svg id="Layer_1" data-name="Layer 1" xmlns="http://www.w3.org/2000/svg" viewBox="0 0 512 512"><defs><style>.cls-1{fill:#4a22ef;}.cls-2{fill:#f7f6ff;}</style></defs><circle class="cls-1" cx="256" cy="256" r="256"/><path class="cls-2" d="M235.05,86a39,39,0,0,0-27.58,11.43L92.53,212.37a22.3,22.3,0,0,0,0,31.53l75.32,75.32V185.87a18,18,0,0,1,18-18H344.15L426,86Z"/><path class="cls-2" d="M167.85,344.15H326.13a18,18,0,0,0,18-18V192.78l75.32,75.32a22.3,22.3,0,0,1,0,31.53L304.53,414.57A39,39,0,0,1,277,426H86Z"/></svg>