<svg id="Layer_1" data-name="Layer 1" xmlns="http://www.w3.org/2000/svg" viewBox="0 0 512 512"><defs><style>.cls-1{fill:#fff;}.cls-2{fill:#f00500;}.cls-3{fill:none;}.cls-4{fill:#ffa409;}.cls-5{fill:#ff9300;}.cls-6{fill:#ff8300;}</style></defs><circle class="cls-1" cx="256" cy="256" r="256"/><circle class="cls-2" cx="256" cy="256" r="220"/><g id="Group_938" data-name="Group 938"><g id="Group_931" data-name="Group 931"><path id="Path_8573" data-name="Path 8573" class="cls-2" d="M343.18,99.45a242.52,242.52,0,0,0-26.7,31.68l-2.51-.82a182.86,182.86,0,0,0-44.74-8.67c-4.57-.35-21.6-.35-27.16,0-16.8,1.12-29.68,3.63-44.32,8.77-.59.23-1.11.41-1.64.58a238.21,238.21,0,0,0-27.57-31.44A191.67,191.67,0,0,1,324.85,91.3c5.45,2,10.78,4.45,16,7Z"/><path id="Path_8574" data-name="Path 8574" class="cls-2" d="M433.8,321.51A182.7,182.7,0,0,1,401,379a204,204,0,0,1-25.64,25.1,189.1,189.1,0,0,1-73.94,36.48,193.84,193.84,0,0,1-90.87,0,188.7,188.7,0,0,1-73.94-36.48A203.44,203.44,0,0,1,111,379,180.72,180.72,0,0,1,78.2,202.91a191.19,191.19,0,0,1,14.93-32.16c2.75-4.68,6.15-9.95,7.8-12.12,5.62,24.19,12.53,45.44,15.1,53.1-.19.44-.41.87-.64,1.29-13.65,27.63-21,54.27-22.78,82.61,0,.35,0,.76,0,1.11-.47,8.49-.24,12.53,1.17,17.86,4.39,16.69,17.91,35.07,39.11,53.1,34.71,29.5,81.78,50.81,117.43,53.28,37.18,2.51,92-19.21,128.62-50.94a183.23,183.23,0,0,0,16.16-16.22c3.63-4.21,9-11.47,8.61-11.47-.12,0,0-.12.23-.24s.35-.29.23-.41.06-.23.24-.29.29-.17.23-.29,0-.24.23-.29a.27.27,0,0,0,.19-.33v0c-.06-.12,0-.24.12-.24s.23-.17.23-.29.12-.29.23-.29a.26.26,0,0,0,.24-.24,5.72,5.72,0,0,1,.76-1.34c.89-1.36,4.39-7.62,4.87-8.67a80.21,80.21,0,0,0,6.44-21,59.81,59.81,0,0,0,.53-10.53c-.06-.24-.06-.66-.12-1.3-.12-1.17-.18-2.92-.29-4.68-.12-2.64-.35-6.32-.53-8.14-2.51-26.57-9.3-48.3-22.18-71.3A19.2,19.2,0,0,1,394,210a2.65,2.65,0,0,1-.23-.48h0c1.81-5.43,9.24-28.25,15.16-54.27l.11.12.88,1.18c1.52,2,5.56,8.13,7.38,11.06a179.8,179.8,0,0,1,16.56,153.94Z"/><path id="Path_8575" data-name="Path 8575" d="M357.81,251.56c-.17,1-2.92,3.74-5.68,5.79-8.08,5.91-22.53,11.41-37.23,14-8.37,1.52-16.75,1.76-19.26.53-1.64-.82-1.87-1.46-1.29-3.58,1.23-4.38,5.22-9.18,11.41-13.7,3.17-2.28,16-10.06,22-13.34,9.84-5.39,17.8-8.61,23.18-9.37a12.05,12.05,0,0,1,4.4,0c1.05.41,2.22,3.51,2.69,7.26A94.41,94.41,0,0,1,357.81,251.56Z"/><path id="Path_8576" data-name="Path 8576" d="M219.88,270.94c-.35.7-2.11,1.46-4.1,1.75a66.3,66.3,0,0,1-11.53-.29c-12.41-1.64-25.58-5.45-35.19-10.14a44.29,44.29,0,0,1-12.12-8.13l-1.64-1.7-.17-2.22c-.29-3.9-.24-10,.23-12.12a16,16,0,0,1,1.81-5.15c.48-.59.48-.59,2.59-.59a25.56,25.56,0,0,1,8.25,1.52c7.2,2.22,17.92,7.61,31,15.46,10.77,6.44,14.81,9.6,17.91,13.93C219,266,220.41,269.76,219.88,270.94Z"/><path id="Path_8577" data-name="Path 8577" d="M302.77,352.46c0,.18-.7,3-1.58,6.32s-1.58,6-1.58,6.14a9.83,9.83,0,0,1-1.88.06h-1.87l-2.57,6.09c-1.41,3.34-2.7,6.44-2.87,6.91l-.31.79-1.26-1.95-1.23-1.95V358.58l-.47.12c-1,.23-8.07,1.17-11.18,1.46a160.26,160.26,0,0,1-38.47-.82,38.66,38.66,0,0,0-3.9-.47c-.09.06,0,3.8.12,8.43l.17,8.31-1,1.52c-.53.82-1,1.53-1,1.59-.18.17-.77-.77-2.12-3.46a39.6,39.6,0,0,1-3.27-8.9l-.41-1.7-1.82.12-1.81.17-.47-2.16c-.23-1.17-.53-3-.64-4l-.18-1.88-1.52-1.34c-.88-.76-1.76-1.52-1.95-1.64a1.29,1.29,0,0,1-.41-1v-.71l7.32.06,7.33.06.23.76.23.76,2.52.12c1.4.06,5.84.17,9.83.29l7.33.18,1.87-2.93,1.95-2.92h2.45l-.06-6.09-.06-6.09-3.21-1.4c-10.37-4.57-16.45-9.75-18.74-16.1-.47-1.29-.47-1.76-.58-7.61s-.06-6.32.35-7.62a8.5,8.5,0,0,1,6-6c1-.3,3.63-.3,17.45-.3l16.27.07,1.81.87a10.16,10.16,0,0,1,4.4,3.45c1.4,1.87,1.81,3.34,1.81,6.91,0,5.1-.35,9.49-.88,11.24a24.12,24.12,0,0,1-3.39,6.74,31.27,31.27,0,0,1-13.1,9.14l-1.41.52.05,6.15.06,6.15,1.3.12,1.28.11,1.76,2.64,1.69,2.63H279c4.32,0,8.13.06,8.48.12.59.12.71.06,1.29-1l.7-1.06h6.73C301.26,352.14,302.77,352.26,302.77,352.46Z"/><path id="Path_8578" data-name="Path 8578" d="M271.87,369.23c-1.12.64-1.88,1-2.05.82s-1-.76-1.87-1.41l-1.58-1.28-1.65,1.75c-3.56,3.9-3.68,4.05-4.73,4.1-1.65.18-1.95-.11-4-3.1-1.05-1.52-1.87-2.81-1.87-2.81s-.76-.12-1.63-.18l-1.65-.17-.76,1.58-.76,1.58L248,369.7a29.38,29.38,0,0,1-3.1-1.23l-1.76-.88v-3.34l15.59.06,15.59.06.06,1.58C274.39,367.83,274.45,367.77,271.87,369.23Z"/></g><path id="Path_8579" data-name="Path 8579" class="cls-1" d="M418.23,297.81c-.06-.24-.06-.65-.12-1.3a124.53,124.53,0,0,0-91.38,28.26s-12-55-68.2-55-77,55-77,55c-31.51-33.9-73.66-31.44-88.88-29.23,0,.35,0,.76,0,1.11-.47,8.5-.24,12.53,1.17,17.86,4.39,16.69,17.91,35.08,39.11,53.1,34.71,29.5,81.78,50.81,117.43,53.28,37.19,2.51,92-19.21,128.62-50.94A183.12,183.12,0,0,0,395,353.74c3.63-4.22,9-11.48,8.61-11.48-.12,0,0-.12.23-.24s.35-.29.23-.4.06-.24.24-.3.29-.17.23-.29,0-.23.24-.29a.26.26,0,0,0,.18-.32v0c-.06-.12,0-.24.12-.24s.23-.17.23-.29.12-.29.23-.29a.26.26,0,0,0,.24-.23,6,6,0,0,1,.76-1.35c.89-1.35,4.39-7.62,4.87-8.67a80.21,80.21,0,0,0,6.44-21A70.66,70.66,0,0,0,418.23,297.81ZM271.87,369.23c-1.12.64-1.88,1-2.05.82s-1-.76-1.87-1.41l-1.58-1.28-1.65,1.75c-3.56,3.9-3.68,4.05-4.73,4.1-1.65.18-1.95-.11-4-3.1-1.05-1.52-1.87-2.81-1.87-2.81s-.76-.12-1.63-.18l-1.65-.17-.76,1.58-.76,1.58L248,369.7a29.38,29.38,0,0,1-3.1-1.23l-1.76-.88v-3.34l15.59.06,15.59.06.06,1.58c0,1.88.09,1.82-2.49,3.28Zm29.27-10.53c-.87,3.33-1.57,6-1.57,6.13a8.47,8.47,0,0,1-1.88.06h-1.88L293.3,371c-1.41,3.34-2.7,6.44-2.87,6.91l-.32.82-1.26-1.95-1.23-1.95V358.58l-.47.12c-1,.23-8.07,1.17-11.18,1.46a160.26,160.26,0,0,1-38.47-.82,38.66,38.66,0,0,0-3.9-.47c-.09.06,0,3.8.12,8.43l.17,8.31-1,1.52c-.53.82-1,1.53-1,1.59-.18.17-.77-.77-2.12-3.46a39.6,39.6,0,0,1-3.27-8.9l-.41-1.7-1.82.12-1.81.17-.47-2.16c-.23-1.17-.53-3-.64-4l-.18-1.88-1.52-1.34c-.88-.76-1.76-1.52-1.95-1.64a1.29,1.29,0,0,1-.41-1v-.71l7.32.06,7.33.06.23.76.23.76,2.52.12c1.4.06,5.84.17,9.83.29l7.33.18,1.87-2.93,1.95-2.92h2.45l-.06-6.09-.06-6.09-3.21-1.4c-10.37-4.57-16.45-9.75-18.74-16.1-.47-1.29-.47-1.76-.58-7.61s-.06-6.32.35-7.62a8.5,8.5,0,0,1,6-6c1-.3,3.63-.3,17.45-.3l16.27.07,1.81.87a10.16,10.16,0,0,1,4.4,3.45c1.4,1.87,1.81,3.34,1.81,6.91,0,5.1-.35,9.49-.88,11.24a24.12,24.12,0,0,1-3.39,6.74,31.27,31.27,0,0,1-13.1,9.14l-1.41.52.05,6.15.06,6.15,1.3.12,1.28.11,1.76,2.64,1.69,2.63H279c4.32,0,8.13.06,8.48.12.59.12.71.06,1.29-1l.7-1.06h6.73c5.22,0,6.74.06,6.74.24-.19,0-.94,2.83-1.82,6.15Z"/><path id="Path_8580" data-name="Path 8580" class="cls-3" d="M92.49,295.58a52.9,52.9,0,0,0-5.85,1.11"/><path id="Path_8581" data-name="Path 8581" class="cls-3" d="M423.33,297.27a52.51,52.51,0,0,0-5.22-.76"/><path id="Path_8582" data-name="Path 8582" class="cls-4" d="M417.74,291.84c-.11-2.64-.35-6.33-.52-8.15-2.52-26.57-9.31-48.3-22.19-71.3a20.49,20.49,0,0,1-1.28-2.46,2.73,2.73,0,0,1-.25-.48h0c1.82-5.43,9.26-28.25,15.17-54.27,8-35.36,13.12-76.69-2.46-89.1,0,0-26.93-2-63,33.37a242.52,242.52,0,0,0-26.7,31.68l-2.51-.82a183,183,0,0,0-44.74-8.67c-4.57-.35-21.6-.35-27.16,0-16.8,1.12-29.68,3.63-44.31,8.77-.6.23-1.13.41-1.65.58a237.56,237.56,0,0,0-27.58-31.44C131.07,64,103.14,66,103.14,66c-16.51,12.82-10.89,56-2.34,92.56,5.62,24.19,12.53,45.44,15.1,53.11a11.75,11.75,0,0,1-.64,1.28c-13.64,27.64-21,54.27-22.77,82.61,15.28-2.22,57.37-4.74,88.93,29.23,0,0,20.84-55,77-55s68.2,55,68.2,55a124.78,124.78,0,0,1,91.39-28.26C418,295.34,417.88,293.59,417.74,291.84ZM127,189.62s-21.89-54.75-16.27-86h0c1-5.27,2.69-9.9,5.44-13.41,0,0,24.82,2.46,64.87,47a114.23,114.23,0,0,0-17.8,11.52.17.17,0,0,1-.12.06A141,141,0,0,0,127,189.67Zm92.91,81.32c-.35.7-2.11,1.46-4.1,1.75a66.3,66.3,0,0,1-11.53-.29c-12.41-1.64-25.58-5.45-35.19-10.14a44.29,44.29,0,0,1-12.12-8.13l-1.64-1.7-.17-2.22c-.29-3.9-.24-10,.23-12.12a16,16,0,0,1,1.81-5.15c.48-.59.48-.59,2.59-.59a25.56,25.56,0,0,1,8.25,1.52c7.2,2.22,17.92,7.61,31,15.46,10.77,6.44,14.81,9.6,17.91,13.93C219,266,220.41,269.76,219.88,270.94Zm137.93-19.38c-.17,1-2.92,3.74-5.68,5.79-8.08,5.91-22.53,11.41-37.23,14-8.37,1.52-16.75,1.76-19.26.53-1.64-.82-1.87-1.46-1.29-3.58,1.23-4.38,5.22-9.18,11.41-13.7,3.17-2.28,16-10.06,22-13.34,9.84-5.39,17.8-8.61,23.18-9.37a12.05,12.05,0,0,1,4.4,0c1.05.41,2.22,3.51,2.69,7.26a94.41,94.41,0,0,1-.18,12.36Zm-9.74-102.88-.12-.05a108.93,108.93,0,0,0-17.19-11.5c38.71-44.53,62.63-47,62.63-47a31.77,31.77,0,0,1,5.27,13.4h0C404.1,134.81,383,189.62,383,189.62a139.3,139.3,0,0,0-34.89-40.93Z"/><path id="Path_8583" data-name="Path 8583" class="cls-3" d="M316.48,131.13c-.12.11-.17.29-.29.41"/><path id="Path_8584" data-name="Path 8584" class="cls-3" d="M393.46,209.4c-.29.82-.41,1.23-.41,1.23"/><g id="Group_934" data-name="Group 934"><g id="Group_933" data-name="Group 933"><g id="Group_932" data-name="Group 932"><path id="Path_8585" data-name="Path 8585" class="cls-5" d="M398.74,103.55c-4.56-.58-26.18-.7-50.67,45.13l-.12-.05a108.93,108.93,0,0,0-17.19-11.5c38.71-44.53,62.63-47,62.63-47A30.82,30.82,0,0,1,398.74,103.55Z"/></g><path id="Path_8586" data-name="Path 8586" class="cls-6" d="M383.05,189.62a139,139,0,0,0-34.95-40.93c24.46-45.79,46-45.71,50.66-45.13h0C404.18,134.87,383.05,189.62,383.05,189.62Z"/><path id="Path_8587" data-name="Path 8587" class="cls-6" d="M399.61,103.73l-.87-.18Z"/></g></g><path id="Path_8588" data-name="Path 8588" class="cls-3" d="M197.93,133.41c-.59-.82-1.24-1.64-1.82-2.46"/><path id="Path_8589" data-name="Path 8589" class="cls-3" d="M115.9,211.69c.64,1.94,1.06,3,1.06,3"/><g id="Group_937" data-name="Group 937"><g id="Group_936" data-name="Group 936"><g id="Group_935" data-name="Group 935"><path id="Path_8590" data-name="Path 8590" class="cls-5" d="M181,137.13a113.57,113.57,0,0,0-17.8,11.53.18.18,0,0,1-.12.05c-25.33-45.89-47.66-45.71-52.45-45.13,1-5.27,2.69-9.9,5.44-13.4C116.14,90.15,141,92.6,181,137.13Z"/></g><path id="Path_8591" data-name="Path 8591" class="cls-6" d="M163.15,148.68A140.64,140.64,0,0,0,127,189.61s-21.89-54.75-16.27-86.07h0C115.43,103,137.8,102.85,163.15,148.68Z"/><path id="Path_8592" data-name="Path 8592" class="cls-6" d="M110.7,103.55l-1,.18Z"/></g></g><path id="Path_8593" data-name="Path 8593" class="cls-1" d="M323.8,220s-18.74,1.17-16.39-13.47,17-16.39,21.07-15.8S349,197.17,346,209.45s-7,10-9.36,10.55S323.8,220,323.8,220Z"/><path id="Path_8594" data-name="Path 8594" class="cls-1" d="M185.64,220s-18.74,1.17-16.4-13.47,17-16.39,21.07-15.8,20.46,6.44,17.54,18.72-7,10-9.36,10.55S185.64,220,185.64,220Z"/></g></svg>