<svg id="Layer_1" data-name="Layer 1" xmlns="http://www.w3.org/2000/svg" xmlns:xlink="http://www.w3.org/1999/xlink" viewBox="0 0 512 512"><defs><style>.cls-1{fill:#231f20;}.cls-2{fill:url(#linear-gradient);}.cls-3{fill:url(#linear-gradient-2);}.cls-4{fill:url(#linear-gradient-3);}</style><linearGradient id="linear-gradient" x1="406.73" y1="274.18" x2="202.38" y2="665.58" gradientTransform="translate(0 -198)" gradientUnits="userSpaceOnUse"><stop offset="0" stop-color="#00ffa3"/><stop offset="1" stop-color="#dc1fff"/></linearGradient><linearGradient id="linear-gradient-2" x1="317.39" y1="227.53" x2="113.04" y2="618.94" xlink:href="#linear-gradient"/><linearGradient id="linear-gradient-3" x1="361.77" y1="250.71" x2="157.43" y2="642.11" xlink:href="#linear-gradient"/></defs><circle class="cls-1" cx="256" cy="256" r="256"/><path class="cls-2" d="M131.11,332.33a12.11,12.11,0,0,1,8.56-3.54H434.93a6,6,0,0,1,4.28,10.33l-58.32,58.33a12.14,12.14,0,0,1-8.56,3.53H77.07a6,6,0,0,1-4.28-10.33Z"/><path class="cls-3" d="M131.11,114.55a12.46,12.46,0,0,1,8.56-3.53H434.93a6,6,0,0,1,4.28,10.33l-58.32,58.32a12.11,12.11,0,0,1-8.56,3.54H77.07a6,6,0,0,1-4.28-10.33Z"/><path class="cls-4" d="M380.89,222.74a12.14,12.14,0,0,0-8.56-3.53H77.07a6,6,0,0,0-4.28,10.32l58.32,58.33a12.15,12.15,0,0,0,8.56,3.54H434.93a6,6,0,0,0,4.28-10.33Z"/></svg>