<svg id="Layer_1" data-name="Layer 1" xmlns="http://www.w3.org/2000/svg" xmlns:xlink="http://www.w3.org/1999/xlink" viewBox="0 0 512 512"><defs><style>.cls-1{fill:#fff;}.cls-2{fill:url(#linear-gradient);}.cls-3{fill:url(#linear-gradient-2);}.cls-4{fill:url(#linear-gradient-3);}</style><linearGradient id="linear-gradient" x1="256" y1="635" x2="256" y2="302.23" gradientTransform="translate(0 -226.02)" gradientUnits="userSpaceOnUse"><stop offset="0" stop-color="#05aac5"/><stop offset="1" stop-color="#71e0ec"/></linearGradient><linearGradient id="linear-gradient-2" x1="256.17" y1="676.39" x2="256.17" y2="275.28" xlink:href="#linear-gradient"/><linearGradient id="linear-gradient-3" x1="256" y1="717.78" x2="256" y2="247.78" xlink:href="#linear-gradient"/></defs><circle class="cls-1" cx="256" cy="256" r="256"/><path class="cls-2" d="M256,409a129.37,129.37,0,0,1-129.3-129.3c0-69.37,117.05-191.89,122-197l6.12-6.46,6.29,6.3c5.13,5.13,124.17,127.64,124.17,197C385.3,351,327.36,409,256,409ZM255,101.2c-10.27,11.1-31.79,35.1-53.15,63.25-37.91,50-57.94,89.73-57.94,115.06a112.08,112.08,0,0,0,224.16,0c0-25.33-20.36-65.06-58.94-115.06C287.46,136.47,265.44,112.3,255,101.2Z"/><path class="cls-3" d="M256,450.37c-94.2,0-170.69-76.66-170.69-170.69,0-92.05,128.47-220.53,133.94-225.83A8.67,8.67,0,0,1,231.5,66.11c-1.33,1.32-128.81,128.8-128.81,213.57,0,84.6,68.88,153.47,153.48,153.47s153.47-68.87,153.47-153.47c0-34.77-22.52-82.78-65.23-139.24a810.64,810.64,0,0,0-66.06-76.32A8.66,8.66,0,0,1,290.6,51.87C296.23,57.33,427,187.46,427,279.68c-.33,94-76.82,170.69-171,170.69Z"/><path class="cls-4" d="M256,491.76C141.43,491.76,48.22,398.55,48.22,284c0-47.35,23.84-105.63,70.7-173,34.6-49.67,68.54-85.1,70-86.59a8.67,8.67,0,0,1,12.42,12.09A771.53,771.53,0,0,0,133,121.07C88.79,184.48,65.44,240.77,65.44,284c0,105,85.43,190.56,190.56,190.56S446.56,389.11,446.56,284c0-43.21-23.51-99.5-68.05-162.91a776.16,776.16,0,0,0-69-84.6,8.66,8.66,0,1,1,12.41-12.09c5.8,6,141.89,147.35,141.89,259.6C463.78,398.55,370.57,491.76,256,491.76Z"/></svg>