<svg id="Layer_1" data-name="Layer 1" xmlns="http://www.w3.org/2000/svg" xmlns:xlink="http://www.w3.org/1999/xlink" viewBox="0 0 512 512"><defs><style>.cls-1{fill:none;}.cls-2{fill:#fff;}.cls-3{clip-path:url(#clip-path);}.cls-4{fill:#999;}</style><clipPath id="clip-path"><rect class="cls-1" x="2.5" y="2.5" width="507" height="507"/></clipPath></defs><circle class="cls-2" cx="256" cy="256" r="256"/><g class="cls-3"><g class="cls-3"><path class="cls-4" d="M306.31,22.67,319.8,54.28a261.77,261.77,0,0,0,138,138l31.61,13.49a54.63,54.63,0,0,1,20.17,14.61C493.8,107.48,404.55,18.23,291.7,2.5A54.69,54.69,0,0,1,306.31,22.67ZM22.67,205.72l31.61-13.49a261.76,261.76,0,0,0,138-137.95l13.48-31.61A54.89,54.89,0,0,1,220.33,2.5C107.48,18.23,18.23,107.48,2.5,220.33A54.47,54.47,0,0,1,22.67,205.72Zm466.7,100.56-31.62,13.49a261.74,261.74,0,0,0-137.95,138l-13.49,31.59a54.85,54.85,0,0,1-14.61,20.19c112.85-15.75,202.1-105,217.83-217.85a54.58,54.58,0,0,1-20.17,14.61ZM205.72,489.33l-13.48-31.59a261.76,261.76,0,0,0-138-138L22.67,306.28A54.58,54.58,0,0,1,2.5,291.67c15.73,112.85,105,202.1,217.83,217.85A55,55,0,0,1,205.72,489.33Z"/></g><path d="M141,231.22l15.56-6.65a129,129,0,0,0,68-68L231.19,141c9.31-21.8,40.25-21.8,49.56,0l6.63,15.58a129,129,0,0,0,68,68L371,231.22c21.81,9.31,21.81,40.23,0,49.54l-15.58,6.65a128.94,128.94,0,0,0-68,68L280.75,371c-9.31,21.8-40.25,21.8-49.56,0l-6.63-15.56a128.93,128.93,0,0,0-68-68L141,280.76C119.18,271.45,119.18,240.53,141,231.22Z"/></g></svg>