<svg id="Layer_1" data-name="Layer 1" xmlns="http://www.w3.org/2000/svg" viewBox="0 0 512 512"><defs><style>.cls-1{fill:#fa2e53;fill-rule:evenodd;}</style></defs><path class="cls-1" d="M256,0C114.58,0,0,114.58,0,256S114.58,512,256,512,512,397.42,512,256,397.42,0,256,0ZM179.48,398.19H95.35L197,278.84a35,35,0,0,0,0-45.55L95.35,113.94h84.13l92,108a52.56,52.56,0,0,1,0,68.25Zm131.62,0-47.36-57.93,45.42-11.49A35.41,35.41,0,0,1,340,335.61l76.26,62.58ZM340,176.52a35.4,35.4,0,0,1-30.84,6.83l-45.42-11.48,47.36-57.93H416.26S340,176.39,340,176.52Z"/></svg>