<svg id="Layer_1" data-name="Layer 1" xmlns="http://www.w3.org/2000/svg" xmlns:xlink="http://www.w3.org/1999/xlink" viewBox="0 0 512 512"><defs><style>.cls-1{fill:none;}.cls-2,.cls-8{fill:#fff;}.cls-3{clip-path:url(#clip-path);}.cls-4{fill:url(#linear-gradient);}.cls-5{fill:url(#linear-gradient-2);}.cls-6{fill:url(#linear-gradient-3);}.cls-7{fill:#0e0f23;}.cls-8{fill-rule:evenodd;}</style><clipPath id="clip-path"><rect class="cls-1" x="66" y="66" width="380" height="380"/></clipPath><linearGradient id="linear-gradient" x1="214.94" y1="-426.2" x2="273.34" y2="-225.65" gradientTransform="translate(-12 500)" gradientUnits="userSpaceOnUse"><stop offset="0" stop-color="#03b8ff"/><stop offset="1" stop-color="#fa52a0"/></linearGradient><linearGradient id="linear-gradient-2" x1="262.79" y1="-440.13" x2="321.2" y2="-239.58" xlink:href="#linear-gradient"/><linearGradient id="linear-gradient-3" x1="167.66" y1="-412.43" x2="226.06" y2="-211.88" xlink:href="#linear-gradient"/></defs><circle class="cls-2" cx="256" cy="256" r="256"/><g class="cls-3"><path class="cls-4" d="M145.17,102.42,439.67,303.5,366.83,411.17,72.33,208.5Z"/><path class="cls-5" d="M439.67,303.5c-25.34,36.42-110.84,22.17-191.59-34.83-82.33-55.42-126.66-129.84-102.91-166.25C170.5,66,256,80.25,336.75,137.25,419.08,191.08,463.42,267.08,439.67,303.5Z"/><path class="cls-6" d="M366.83,409.58C341.5,446,256,431.75,175.25,374.75S48.58,244.92,73.92,206.92c25.33-36.42,110.83-22.17,191.58,34.83S390.58,373.17,366.83,409.58Z"/><path class="cls-7" d="M439.67,303.5h0L366.83,411.17h0C341.5,447.58,256,431.75,175.25,376.33a476.26,476.26,0,0,1-44.33-34.83c11.08-1.58,25.33-7.92,39.58-23.75,25.33-26.92,38-33.25,49.08-31.67,11.09,0,23.75,11.09,44.34,38s49.08,34.84,66.5,20.59c1.58-1.59,3.16-1.59,4.75-3.17,14.25-11.08,19-15.83,45.91-66.5,6.34-12.67,28.5-33.25,58.59-23.75Q451.54,282.12,439.67,303.5Z"/><path class="cls-8" d="M428.58,297.17c-22.16,31.66-99.75,15.83-174.16-36.42-76-52.25-120.34-118.75-98.17-150.42S256,94.5,330.42,146.75,449.17,265.5,428.58,297.17Zm-69.66-47.5c-11.09,15.83-49.09,7.91-87.09-17.42-36.41-25.33-58.58-58.58-47.5-74.42s49.09-7.91,87.09,17.42C347.83,200.58,370,233.83,358.92,249.67Z"/><path class="cls-2" d="M138.83,138.83c0-1.58-1.58-3.16-3.16-1.58s-3.17,1.58-3.17,3.17c1.58,4.75,3.17,7.91,3.17,11.08,0,1.58,1.58,3.17,3.16,1.58,1.59,0,3.17-1.58,1.59-3.16A30.81,30.81,0,0,0,138.83,138.83Z"/><path class="cls-2" d="M146.75,164.17c0-1.59-1.58-3.17-3.17-1.59s-1.58,1.59-1.58,3.17c17.42,39.58,53.83,82.33,101.33,114,1.59,1.58,3.17,0,4.75,0,1.59-1.58,0-3.17,0-4.75C199,243.33,164.17,202.17,146.75,164.17Z"/><path class="cls-2" d="M338.33,319.33c-1.58,0-3.16,0-3.16,1.59s0,3.16,1.58,3.16c4.75,1.59,11.08,3.17,15.83,4.75,1.59,0,3.17,0,3.17-1.58s0-3.17-1.58-3.17C349.42,322.5,343.08,320.92,338.33,319.33Z"/><path class="cls-2" d="M366.83,325.67a3.17,3.17,0,0,0,0,6.33c12.67,1.58,26.92,3.17,38,1.58a3.17,3.17,0,1,0,0-6.33C392.17,328.83,379.5,327.25,366.83,325.67Z"/></g></svg>