<svg id="Layer_1" data-name="Layer 1" xmlns="http://www.w3.org/2000/svg" viewBox="0 0 512 512"><defs><style>.cls-1{fill:#08c;}.cls-2{fill:#fff;fill-rule:evenodd;}</style></defs><circle class="cls-1" cx="256" cy="256" r="256"/><path class="cls-2" d="M184.77,169.18H328.35a35.43,35.43,0,0,1,15.46,3.22c6.36,3,9.73,7.64,12.09,11.09.19.27.36.55.52.83a32.2,32.2,0,0,1,4.21,16,34.31,34.31,0,0,1-4.21,16.58l-.09.15L265.62,372.9a11.14,11.14,0,0,1-19.28-.06l-89.05-155.5-.07-.12c-2-3.36-5.19-8.56-5.74-15.26a30.3,30.3,0,0,1,17.34-30C174.83,169.2,180.92,169.18,184.77,169.18Zm60.1,22.26h-60.1c-4,0-5.47.25-6.53.74a8.07,8.07,0,0,0-3.52,3.23,8.21,8.21,0,0,0-1.06,4.73c.08.94.47,2,2.74,5.78,0,.08.1.16.14.24l68.33,119.31Zm22.26,0V326.06L337,206a12.17,12.17,0,0,0,1.33-5.62,9.91,9.91,0,0,0-1.15-4.74,18.81,18.81,0,0,0-1.77-2.28,3.25,3.25,0,0,0-1.05-.75,13.28,13.28,0,0,0-6-1.14Z"/></svg>