<svg id="Layer_1" data-name="Layer 1" xmlns="http://www.w3.org/2000/svg" viewBox="0 0 512 512"><defs><style>.cls-1{fill:#f0ccdc;}.cls-2,.cls-3{fill:#ff007a;}.cls-3{fill-rule:evenodd;}</style></defs><circle class="cls-1" cx="256" cy="256" r="256"/><path class="cls-2" d="M221.42,155.42c-4-.57-4.18-.76-2.28-.95,3.61-.57,12,.19,17.89,1.53,13.7,3.23,26.07,11.6,39.2,26.26l3.42,4,5-.76c21.13-3.42,42.82-.76,60.9,7.61,4.95,2.29,12.75,6.86,13.7,8,.38.38.95,2.85,1.33,5.33,1.34,8.94.77,15.6-2.09,20.74-1.52,2.85-1.52,3.61-.57,6.09a5.73,5.73,0,0,0,5.14,3.23c4.57,0,9.32-7.23,11.61-17.31l.95-4,1.71,1.9C387,227.93,394.6,243,395.74,253.62l.38,2.86L394.41,254a32.06,32.06,0,0,0-9.14-9.7c-6.47-4.38-13.32-5.71-31.4-6.66-16.36-1-25.69-2.29-34.82-5.33-15.61-5.14-23.6-11.8-42.06-36.35-8.18-10.85-13.32-16.75-18.46-21.7C247.3,163.42,236.08,157.71,221.42,155.42Z"/><path class="cls-2" d="M363.2,179.59c.38-7.23,1.33-12,3.42-16.36a13.27,13.27,0,0,1,1.72-3.24c.19,0-.19,1.33-.76,2.86-1.53,4.18-1.72,10.08-.77,16.74,1.34,8.57,1.91,9.71,11,19,4.19,4.38,9.14,9.9,11,12.18l3.23,4.19-3.23-3.05c-4-3.8-13.13-11-15.22-12-1.34-.77-1.53-.77-2.48.19-.76.76-.95,1.9-.95,7.42-.19,8.56-1.33,13.89-4.19,19.41-1.52,2.85-1.71,2.28-.38-.95.95-2.48,1.14-3.62,1.14-11.8,0-16.56-1.9-20.55-13.51-27.22-2.85-1.71-7.8-4.18-10.65-5.51a42.62,42.62,0,0,1-5.14-2.48c.38-.38,11.61,2.86,16,4.76,6.66,2.66,7.81,2.85,8.57,2.66C362.63,185.87,363,184.35,363.2,179.59Z"/><path class="cls-2" d="M229.22,208c-8-11-13.13-28.17-12-40.92l.38-4,1.9.38A44.84,44.84,0,0,1,231.7,168c7.61,4.57,11,10.85,14.27,26.46.95,4.56,2.28,9.89,2.86,11.61.95,2.85,4.56,9.51,7.61,13.7,2.09,3,.76,4.56-4,4.18C245.21,223.17,235.5,216.51,229.22,208Z"/><path class="cls-2" d="M353.49,290.73c-37.68-15.22-51-28.35-51-50.62,0-3.24.19-5.9.19-5.9a36.66,36.66,0,0,1,3.24,2.47c7.61,6.09,16.17,8.76,40,12.18,13.89,2.1,21.89,3.62,29.12,6.09,23,7.62,37.3,23.22,40.72,44.34.95,6.09.38,17.7-1.14,23.79-1.33,4.76-5.14,13.51-6.09,13.7-.19,0-.57-.95-.57-2.47-.38-8-4.38-15.6-11-21.5C388.89,306,378.61,300.82,353.49,290.73Z"/><path class="cls-2" d="M326.85,297a45.15,45.15,0,0,0-1.9-8l-.95-2.86,1.71,2.1a33.51,33.51,0,0,1,6.09,11c1.33,3.62,1.33,4.76,1.33,10.66,0,5.71-.19,7-1.33,10.28a34.48,34.48,0,0,1-8,12.75c-6.86,7-15.8,10.85-28.55,12.56-2.28.19-8.75.76-14.46,1.14-14.28.76-23.79,2.28-32.36,5.33-1.14.38-2.28.76-2.47.57-.38-.38,5.52-3.81,10.28-6.09,6.66-3.24,13.51-4.95,28.54-7.61,7.42-1.14,15-2.67,16.94-3.43C320.57,329.55,329.9,314.9,326.85,297Z"/><path class="cls-2" d="M344.17,327.65q-7.43-16.27-3.43-30.83c.38-.95.76-1.9,1.14-1.9a8.19,8.19,0,0,1,2.67,1.33c2.28,1.52,7,4.19,19.22,10.85,15.41,8.37,24.17,14.84,30.26,22.26,5.33,6.47,8.56,13.89,10.08,23,1,5.14.38,17.51-.95,22.65-4.18,16.17-13.7,29.11-27.59,36.53a26.25,26.25,0,0,1-4,1.91c-.19,0,.57-1.91,1.71-4.19,4.57-9.71,5.14-19,1.72-29.5-2.1-6.47-6.47-14.27-15.23-27.4C349.31,337.16,346.83,333.17,344.17,327.65Z"/><path class="cls-2" d="M202.39,385.88c14.08-11.8,31.4-20.17,47.39-22.83,6.85-1.15,18.27-.77,24.55.95,10.08,2.66,19.22,8.37,24,15.41,4.57,6.85,6.67,12.75,8.76,25.88.76,5.14,1.71,10.47,1.9,11.61,1.52,6.85,4.57,12.18,8.38,15,5.89,4.37,16.17,4.56,26.26.76,1.71-.57,3.23-1.14,3.23-.95.38.38-4.76,3.8-8.18,5.51A26.88,26.88,0,0,1,325,440.5c-9.14,0-16.94-4.76-23.22-14.27-1.33-1.91-4-7.42-6.28-12.56-6.66-15.42-10.09-20-17.89-25.12-6.85-4.38-15.6-5.33-22.26-2.1-8.76,4.19-11,15.42-5,22.27a19.46,19.46,0,0,0,10.85,5.71,11.61,11.61,0,0,0,13.13-11.61c0-4.57-1.72-7.23-6.28-9.33-6.09-2.66-12.75.39-12.56,6.28,0,2.48,1.14,4,3.61,5.14,1.52.76,1.52.76.38.57-5.52-1.14-6.85-8-2.47-12.37,5.33-5.32,16.56-3,20.36,4.38,1.52,3.05,1.71,9.14.38,12.94-3.23,8.38-12.37,12.75-21.69,10.28-6.28-1.71-8.95-3.43-16.56-11.23C226.18,395.78,221,393.11,202,390.26l-3.62-.57Z"/><path class="cls-3" d="M102.29,79.68C146.63,133.54,215,217.27,218.38,221.84c2.85,3.81,1.71,7.42-3,10.09a29.12,29.12,0,0,1-10.85,3,13.7,13.7,0,0,1-9.13-4c-1.71-1.71-9.13-12.56-25.88-38.63-12.75-20-23.6-36.54-23.79-36.73-.76-.38-.76-.38,22.46,41.11,14.65,26.07,19.41,35.4,19.41,36.54,0,2.47-.76,3.8-3.81,7.23-5.14,5.71-7.42,12.18-9.13,25.69-1.91,15-7,25.69-21.7,43.77-8.56,10.66-9.89,12.56-12,16.94-2.66,5.33-3.42,8.37-3.8,15.22-.38,7.23.38,11.8,2.47,18.65,1.9,6.09,4,10.09,9.14,17.89,4.37,6.85,7,12,7,13.89,0,1.53.38,1.53,7.23,0,16.36-3.8,29.88-10.27,37.3-18.27,4.57-4.94,5.71-7.61,5.71-14.46,0-4.38-.19-5.33-1.34-8-1.9-4.19-5.51-7.61-13.32-12.94-10.27-7-14.65-12.75-15.79-20.37-.95-6.47.19-10.84,5.9-22.83,5.9-12.37,7.42-17.51,8.37-30.07.57-8,1.52-11.23,3.81-13.7,2.47-2.67,4.56-3.62,10.46-4.38,9.71-1.33,16-3.8,20.94-8.56,4.37-4,6.28-8,6.47-13.89l.19-4.38L229.22,218C220.28,207.76,96.39,71.5,95.82,71.5,95.63,71.5,98.68,75.12,102.29,79.68ZM160.71,350.3a7.85,7.85,0,0,0-2.47-10.47c-3.23-2.09-8.18-1.14-8.18,1.71a1.94,1.94,0,0,0,1.52,1.9c1.71,1,1.9,1.91.57,4s-1.33,4,.38,5.33C155.2,354.86,158.81,353.72,160.71,350.3Z"/><path class="cls-3" d="M237.79,250.2c-4.57,1.33-8.95,6.28-10.28,11.22-.76,3.05-.38,8.57,1,10.28,2.1,2.66,4,3.43,9.33,3.43,10.46,0,19.41-4.57,20.36-10.09,1-4.57-3-10.85-8.56-13.7C246.73,249.82,240.83,249.24,237.79,250.2ZM250,259.71c1.52-2.28.95-4.76-1.91-6.47-5.13-3.23-12.94-.57-12.94,4.38,0,2.47,4,5.14,7.81,5.14C245.4,262.76,248.83,261.23,250,259.71Z"/></svg>