<svg id="Layer_1" data-name="Layer 1" xmlns="http://www.w3.org/2000/svg" viewBox="0 0 512 512"><defs><style>.cls-1{fill:#fff;}.cls-2{fill:#f7a800;}.cls-3{fill:#67b2e8;}.cls-4{fill:#00c4b3;}</style></defs><circle class="cls-1" cx="256" cy="256" r="256"/><path d="M256.1,474.67l-2.18-1.09A380.23,380.23,0,0,1,78.71,244a375.15,375.15,0,0,1-9.43-47.16A429,429,0,0,1,66,148.55c0-2.72-.36-2.35,2.17-3.62a378.1,378.1,0,0,1,141.3-46.8,407.38,407.38,0,0,1,55.68-2.72c10.52.18,20.86.91,31.2,2A380.78,380.78,0,0,1,442.92,144.2c.72.36,1.27.73,2,1.09A1.81,1.81,0,0,1,446,147.1v2.72c-.18,9.43-.54,18.68-1.27,28.12A376,376,0,0,1,413.53,300,375.44,375.44,0,0,1,337,411.91a377.51,377.51,0,0,1-77.81,60.76c-1.09.73-2,1.27-3.08,2ZM83.43,157.8V160A322.64,322.64,0,0,0,86,199.7a338.72,338.72,0,0,0,6.17,35.55,37.88,37.88,0,0,0,2,6,80.77,80.77,0,0,0,150.91-12c2.17-7.8,2.9-15.78,3.26-23.76a117.26,117.26,0,0,1,1.63-15.78A95.8,95.8,0,0,1,307.25,119c1.63-.73,3.44-1.27,5.08-2,.18-.18.54-.18.54-.54-4.72-1.63-32.83-4.53-49.7-4.9a341,341,0,0,0-106.46,14.51A345.88,345.88,0,0,0,83.43,157.8ZM351,375.09a5.62,5.62,0,0,0,1.81-1.81c7.26-9.07,14.15-18.5,20.5-28.3A343.22,343.22,0,0,0,420.79,230.9a332.66,332.66,0,0,0,6.35-42.08c.9-9.61,1.27-19.23,1.27-29a7.53,7.53,0,0,0-.18-2l-2.73-1.63c-7.43-4.17-15.05-8.16-22.67-11.79a293.74,293.74,0,0,0-34.28-13.78,78.28,78.28,0,0,0-43.35-1.45c-41.53,10-68.19,50.78-60.21,92.68,4.35,23.22,16.87,41.35,36.82,54,1.27.91,2.72,1.63,4,2.54a93.76,93.76,0,0,1,34.28,36.09A92,92,0,0,1,351.5,365.3a61.75,61.75,0,0,1-.54,9.79ZM256.1,456.17a17.67,17.67,0,0,0,2.36-1.45,351.87,351.87,0,0,0,63.12-47.52,12.63,12.63,0,0,0,2.9-4c1.27-2.36,2.54-4.9,3.63-7.26,9.06-18.86,11.06-38.45,5.07-58.77a80.67,80.67,0,0,0-87.42-56.95,77.9,77.9,0,0,0-30.29,10.16,96,96,0,0,1-57.86,12.33,93.86,93.86,0,0,1-29-7.61A96,96,0,0,1,108.28,283a12.06,12.06,0,0,0-1.82-1.09,7.74,7.74,0,0,0,.55,1.82,352.9,352.9,0,0,0,29.93,58.95A343.93,343.93,0,0,0,236,444c9.07,5.81,17.59,11.07,20.13,12.16Z"/><path class="cls-2" d="M83.43,157.8a338.86,338.86,0,0,1,73.09-31.56A347.48,347.48,0,0,1,263,111.73c16.87.37,45,3.09,49.7,4.9.18.36-.18.55-.55.55-1.63.72-3.44,1.27-5.07,2a95.84,95.84,0,0,0-57.32,70.74,115.66,115.66,0,0,0-1.63,15.78c-.18,8-.91,16-3.27,23.76a80.76,80.76,0,0,1-150.9,12,26,26,0,0,1-2-6,338.69,338.69,0,0,1-6.16-35.55,324.92,324.92,0,0,1-2.54-39.72,10.44,10.44,0,0,0,.18-2.36Z"/><path class="cls-3" d="M351,375.09c.36-3.44.72-6.53.91-9.79a95.74,95.74,0,0,0-45.71-86.88c-1.27-.91-2.72-1.63-4-2.54-20.13-12.7-32.47-30.65-36.82-54A80.59,80.59,0,0,1,368.92,130.6c11.78,3.62,23,8.52,34.28,13.78C411,148,418.43,152,425.87,156.17c.9.55,1.63.91,2.72,1.63,0,.73.18,1.27.18,2,0,9.61-.54,19.41-1.27,29a362.78,362.78,0,0,1-6.35,42.08A339.51,339.51,0,0,1,373.63,345c-6.35,9.8-13.24,19.23-20.49,28.3C352.41,373.82,352.05,374.55,351,375.09Z"/><path class="cls-4" d="M256.1,456.17c-2.72-1.09-11.06-6.17-20-12.16a346.1,346.1,0,0,1-54.78-45.52,336.81,336.81,0,0,1-44.25-55.86,327.61,327.61,0,0,1-29.93-58.95,11.53,11.53,0,0,1-.54-1.82c.9.55,1.27.73,1.81,1.09a95.15,95.15,0,0,0,49.33,19.77,96.5,96.5,0,0,0,57.86-12.33,85.47,85.47,0,0,1,30.29-10.16,80.68,80.68,0,0,1,87.43,56.95c6,20.14,4.17,39.73-5.08,58.77-1.27,2.54-2.36,4.9-3.63,7.26a12.63,12.63,0,0,1-2.9,4,351.87,351.87,0,0,1-63.12,47.52c-.91.54-1.81,1.08-2.54,1.45Z"/></svg>