<svg id="Layer_1" data-name="Layer 1" xmlns="http://www.w3.org/2000/svg" viewBox="0 0 512 512"><defs><style>.cls-1{fill:#2c7df7;}.cls-2{fill:#fff;}</style></defs><circle class="cls-1" cx="256" cy="256" r="256"/><g id="Layer_2" data-name="Layer 2"><path class="cls-2" d="M296.73,446q-40.68,0-59.38-19.59a60.5,60.5,0,0,1-18.64-42.23A27.91,27.91,0,0,1,222,370.23a24.08,24.08,0,0,1,8.9-8.91,31,31,0,0,1,27.73,0,23.73,23.73,0,0,1,8.85,8.91,27.4,27.4,0,0,1,3.39,13.95,26.69,26.69,0,0,1-4.75,16.33,22.12,22.12,0,0,1-11.29,8.26,30.83,30.83,0,0,0,17.81,11.1,88.33,88.33,0,0,0,24.29,3.51,54.21,54.21,0,0,0,30.58-9.15,53.38,53.38,0,0,0,19.94-27A117.39,117.39,0,0,0,354,346.78a111,111,0,0,0-7.13-42,51.84,51.84,0,0,0-20.6-26.13,54.8,54.8,0,0,0-29.68-8.49,56.45,56.45,0,0,0-25.71,8.73l-19.07,9.56v-9.56l85.68-114.94H218.71V283.19a42.66,42.66,0,0,0,6.53,24.41,22.53,22.53,0,0,0,19.95,9.56,33.4,33.4,0,0,0,19.71-7,71.38,71.38,0,0,0,16.51-17,5.89,5.89,0,0,1,2.14-2.85,4.4,4.4,0,0,1,2.87-1.07,10,10,0,0,1,5.58,2.37,12,12,0,0,1,3,8.08A48,48,0,0,1,294,305.7,57.5,57.5,0,0,1,273.59,331,50.5,50.5,0,0,1,245,339.66q-38.57,0-53.43-15.2a57,57,0,0,1-14.73-41.56v-119h-60.4V141.76h60.69V91.23l-13.9-13.9V66h40.32l15.14,7.84v67.92l156.87-.48L391.19,157,295,253.61a65,65,0,0,1,18.16-4.39,78.7,78.7,0,0,1,35.16,10,72.11,72.11,0,0,1,30.28,27,95.24,95.24,0,0,1,13.66,32.6,137.17,137.17,0,0,1,3.26,27.91,116.71,116.71,0,0,1-11.87,51.71A75.85,75.85,0,0,1,348,434.13,115.32,115.32,0,0,1,296.73,446Z"/></g></svg>